%TF.GenerationSoftware,Altium Limited,Altium Designer,20.0.13 (296)*%
G04 Layer_Physical_Order=4*
G04 Layer_Color=16711680*
%FSLAX44Y44*%
%MOMM*%
%TF.FileFunction,Copper,L4,Bot,Signal*%
%TF.Part,Single*%
G01*
G75*
%TA.AperFunction,Conductor*%
%ADD29C,0.3000*%
%ADD30C,0.1053*%
%ADD33C,0.2000*%
%TA.AperFunction,ComponentPad*%
%ADD34C,2.0000*%
G04:AMPARAMS|DCode=35|XSize=2mm|YSize=2mm|CornerRadius=0mm|HoleSize=0mm|Usage=FLASHONLY|Rotation=270.000|XOffset=0mm|YOffset=0mm|HoleType=Round|Shape=Octagon|*
%AMOCTAGOND35*
4,1,8,-0.5000,-1.0000,0.5000,-1.0000,1.0000,-0.5000,1.0000,0.5000,0.5000,1.0000,-0.5000,1.0000,-1.0000,0.5000,-1.0000,-0.5000,-0.5000,-1.0000,0.0*
%
%ADD35OCTAGOND35*%

%ADD36R,2.0000X2.0000*%
%ADD37C,1.6000*%
G04:AMPARAMS|DCode=38|XSize=1.6mm|YSize=1.6mm|CornerRadius=0mm|HoleSize=0mm|Usage=FLASHONLY|Rotation=270.000|XOffset=0mm|YOffset=0mm|HoleType=Round|Shape=Octagon|*
%AMOCTAGOND38*
4,1,8,-0.4000,-0.8000,0.4000,-0.8000,0.8000,-0.4000,0.8000,0.4000,0.4000,0.8000,-0.4000,0.8000,-0.8000,0.4000,-0.8000,-0.4000,-0.4000,-0.8000,0.0*
%
%ADD38OCTAGOND38*%

%ADD39R,2.0000X2.0000*%
%TA.AperFunction,ViaPad*%
%ADD40C,0.6000*%
%ADD41C,0.9000*%
G36*
X1400000Y524354D02*
X144354Y524354D01*
X144354Y1275646D01*
X1400000D01*
Y524354D01*
D02*
G37*
G36*
X1885646Y524354D02*
X1460000Y524354D01*
X1460000Y1275646D01*
X1885646D01*
X1885646Y524354D01*
D02*
G37*
%LPC*%
G36*
X708770Y1205396D02*
Y1201270D01*
X712896D01*
X712719Y1202162D01*
X711494Y1203994D01*
X709662Y1205219D01*
X708770Y1205396D01*
D02*
G37*
G36*
X706230D02*
X705338Y1205219D01*
X703506Y1203994D01*
X702281Y1202162D01*
X702104Y1201270D01*
X706230D01*
Y1205396D01*
D02*
G37*
G36*
X666270D02*
Y1201270D01*
X670396D01*
X670219Y1202162D01*
X668994Y1203994D01*
X667162Y1205219D01*
X666270Y1205396D01*
D02*
G37*
G36*
X663730D02*
X662838Y1205219D01*
X661006Y1203994D01*
X659781Y1202162D01*
X659604Y1201270D01*
X663730D01*
Y1205396D01*
D02*
G37*
G36*
X712896Y1198730D02*
X708770D01*
Y1194604D01*
X709662Y1194781D01*
X711494Y1196006D01*
X712719Y1197838D01*
X712896Y1198730D01*
D02*
G37*
G36*
X706230D02*
X702104D01*
X702281Y1197838D01*
X703506Y1196006D01*
X705338Y1194781D01*
X706230Y1194604D01*
Y1198730D01*
D02*
G37*
G36*
X670396D02*
X666270D01*
Y1194604D01*
X667162Y1194781D01*
X668994Y1196006D01*
X670219Y1197838D01*
X670396Y1198730D01*
D02*
G37*
G36*
X663730D02*
X659604D01*
X659781Y1197838D01*
X661006Y1196006D01*
X662838Y1194781D01*
X663730Y1194604D01*
Y1198730D01*
D02*
G37*
G36*
X708770Y1175396D02*
Y1171270D01*
X712896D01*
X712719Y1172162D01*
X711494Y1173994D01*
X709662Y1175219D01*
X708770Y1175396D01*
D02*
G37*
G36*
X706230D02*
X705338Y1175219D01*
X703506Y1173994D01*
X702281Y1172162D01*
X702104Y1171270D01*
X706230D01*
Y1175396D01*
D02*
G37*
G36*
X666270D02*
Y1171270D01*
X670396D01*
X670219Y1172162D01*
X668994Y1173994D01*
X667162Y1175219D01*
X666270Y1175396D01*
D02*
G37*
G36*
X663730D02*
X662838Y1175219D01*
X661006Y1173994D01*
X659781Y1172162D01*
X659604Y1171270D01*
X663730D01*
Y1175396D01*
D02*
G37*
G36*
X712896Y1168730D02*
X708770D01*
Y1164604D01*
X709662Y1164781D01*
X711494Y1166006D01*
X712719Y1167838D01*
X712896Y1168730D01*
D02*
G37*
G36*
X706230D02*
X702104D01*
X702281Y1167838D01*
X703506Y1166006D01*
X705338Y1164781D01*
X706230Y1164604D01*
Y1168730D01*
D02*
G37*
G36*
X670396D02*
X666270D01*
Y1164604D01*
X667162Y1164781D01*
X668994Y1166006D01*
X670219Y1167838D01*
X670396Y1168730D01*
D02*
G37*
G36*
X663730D02*
X659604D01*
X659781Y1167838D01*
X661006Y1166006D01*
X662838Y1164781D01*
X663730Y1164604D01*
Y1168730D01*
D02*
G37*
G36*
X322730Y1118770D02*
X309730D01*
X303230Y1112270D01*
Y1099270D01*
X309730Y1092770D01*
X322730D01*
X329230Y1099270D01*
Y1112270D01*
X322730Y1118770D01*
D02*
G37*
G36*
X547520Y1108610D02*
X534520D01*
X528020Y1102110D01*
Y1089110D01*
X534520Y1082610D01*
X547520D01*
X554020Y1089110D01*
Y1102110D01*
X547520Y1108610D01*
D02*
G37*
G36*
X317500Y1068251D02*
Y1057040D01*
X328711D01*
X328447Y1059044D01*
X327184Y1062094D01*
X325174Y1064714D01*
X322554Y1066724D01*
X319504Y1067987D01*
X317500Y1068251D01*
D02*
G37*
G36*
X314960D02*
X312956Y1067987D01*
X309906Y1066724D01*
X307286Y1064714D01*
X305276Y1062094D01*
X304013Y1059044D01*
X303749Y1057040D01*
X314960D01*
Y1068251D01*
D02*
G37*
G36*
X542290Y1058091D02*
Y1046880D01*
X553501D01*
X553237Y1048884D01*
X551974Y1051934D01*
X549964Y1054554D01*
X547344Y1056564D01*
X544294Y1057827D01*
X542290Y1058091D01*
D02*
G37*
G36*
X539750D02*
X537746Y1057827D01*
X534696Y1056564D01*
X532076Y1054554D01*
X530066Y1051934D01*
X528803Y1048884D01*
X528539Y1046880D01*
X539750D01*
Y1058091D01*
D02*
G37*
G36*
X328711Y1054500D02*
X317500D01*
Y1043289D01*
X319504Y1043553D01*
X322554Y1044816D01*
X325174Y1046826D01*
X327184Y1049446D01*
X328447Y1052496D01*
X328711Y1054500D01*
D02*
G37*
G36*
X314960D02*
X303749D01*
X304013Y1052496D01*
X305276Y1049446D01*
X307286Y1046826D01*
X309906Y1044816D01*
X312956Y1043553D01*
X314960Y1043289D01*
Y1054500D01*
D02*
G37*
G36*
X553501Y1044340D02*
X542290D01*
Y1033129D01*
X544294Y1033393D01*
X547344Y1034656D01*
X549964Y1036666D01*
X551974Y1039286D01*
X553237Y1042336D01*
X553501Y1044340D01*
D02*
G37*
G36*
X539750D02*
X528539D01*
X528803Y1042336D01*
X530066Y1039286D01*
X532076Y1036666D01*
X534696Y1034656D01*
X537746Y1033393D01*
X539750Y1033129D01*
Y1044340D01*
D02*
G37*
G36*
X1332500Y1003112D02*
X1329106Y1002665D01*
X1325944Y1001356D01*
X1323228Y999272D01*
X1321145Y996556D01*
X1320487Y994969D01*
X1319113D01*
X1318456Y996556D01*
X1316372Y999272D01*
X1313656Y1001356D01*
X1310494Y1002665D01*
X1307100Y1003112D01*
X1303706Y1002665D01*
X1300544Y1001356D01*
X1297828Y999272D01*
X1295744Y996556D01*
X1294838Y994368D01*
X1293464D01*
X1292654Y996324D01*
X1290644Y998944D01*
X1288024Y1000954D01*
X1284974Y1002217D01*
X1282970Y1002481D01*
Y990000D01*
Y977519D01*
X1284974Y977783D01*
X1288024Y979046D01*
X1290644Y981056D01*
X1292654Y983676D01*
X1293464Y985632D01*
X1294838D01*
X1295744Y983444D01*
X1297828Y980728D01*
X1300544Y978644D01*
X1303706Y977335D01*
X1307100Y976888D01*
X1310494Y977335D01*
X1313656Y978644D01*
X1316372Y980728D01*
X1318456Y983444D01*
X1319113Y985031D01*
X1320487D01*
X1321145Y983444D01*
X1323228Y980728D01*
X1325944Y978644D01*
X1329106Y977335D01*
X1332500Y976888D01*
X1335894Y977335D01*
X1339056Y978644D01*
X1341772Y980728D01*
X1343630Y983150D01*
X1344900Y982809D01*
Y977000D01*
X1370900D01*
Y1003000D01*
X1344900D01*
Y997191D01*
X1343630Y996850D01*
X1341772Y999272D01*
X1339056Y1001356D01*
X1335894Y1002665D01*
X1332500Y1003112D01*
D02*
G37*
G36*
X1280430Y1002481D02*
X1278426Y1002217D01*
X1275376Y1000954D01*
X1272756Y998944D01*
X1270746Y996324D01*
X1269483Y993274D01*
X1269219Y991270D01*
X1280430D01*
Y1002481D01*
D02*
G37*
G36*
X1190000Y996117D02*
X1187659Y995652D01*
X1185674Y994326D01*
X1184348Y992341D01*
X1183883Y990000D01*
X1184348Y987659D01*
X1185674Y985674D01*
X1187659Y984348D01*
X1190000Y983883D01*
X1192341Y984348D01*
X1194326Y985674D01*
X1195652Y987659D01*
X1196117Y990000D01*
X1195652Y992341D01*
X1194326Y994326D01*
X1192341Y995652D01*
X1190000Y996117D01*
D02*
G37*
G36*
X1280430Y988730D02*
X1269219D01*
X1269483Y986726D01*
X1270746Y983676D01*
X1272756Y981056D01*
X1275376Y979046D01*
X1278426Y977783D01*
X1280430Y977519D01*
Y988730D01*
D02*
G37*
G36*
X1100000Y981117D02*
X1097659Y980652D01*
X1095674Y979326D01*
X1094348Y977341D01*
X1093883Y975000D01*
X1094348Y972659D01*
X1095674Y970674D01*
X1097659Y969348D01*
X1100000Y968883D01*
X1102341Y969348D01*
X1104326Y970674D01*
X1105652Y972659D01*
X1106117Y975000D01*
X1105652Y977341D01*
X1104326Y979326D01*
X1102341Y980652D01*
X1100000Y981117D01*
D02*
G37*
G36*
X1310000Y966117D02*
X1307659Y965652D01*
X1305674Y964326D01*
X1304348Y962341D01*
X1303882Y960000D01*
X1304348Y957659D01*
X1305674Y955674D01*
X1307659Y954348D01*
X1310000Y953883D01*
X1312341Y954348D01*
X1314326Y955674D01*
X1315652Y957659D01*
X1316118Y960000D01*
X1315652Y962341D01*
X1314326Y964326D01*
X1312341Y965652D01*
X1310000Y966117D01*
D02*
G37*
G36*
X1370000Y953617D02*
X1367659Y953152D01*
X1366067Y952088D01*
X1319257D01*
X1317502Y951739D01*
X1316013Y950744D01*
X1314256Y948987D01*
X1313261Y947498D01*
X1312912Y945743D01*
Y929400D01*
X1304256Y920744D01*
X1303261Y919256D01*
X1302912Y917500D01*
Y830000D01*
X1303261Y828244D01*
X1304256Y826756D01*
X1306756Y824256D01*
X1308244Y823261D01*
X1310000Y822912D01*
X1316067D01*
X1317659Y821848D01*
X1320000Y821383D01*
X1322341Y821848D01*
X1324326Y823174D01*
X1325652Y825159D01*
X1326118Y827500D01*
X1325652Y829841D01*
X1324326Y831826D01*
X1322341Y833152D01*
X1320000Y833617D01*
X1317659Y833152D01*
X1316067Y832088D01*
X1312088D01*
Y915600D01*
X1320744Y924256D01*
X1321739Y925744D01*
X1322088Y927500D01*
Y942912D01*
X1366067D01*
X1367659Y941848D01*
X1370000Y941383D01*
X1372341Y941848D01*
X1374326Y943174D01*
X1375652Y945159D01*
X1376118Y947500D01*
X1375652Y949841D01*
X1374326Y951826D01*
X1372341Y953152D01*
X1370000Y953617D01*
D02*
G37*
G36*
X321500Y953000D02*
X308500D01*
X302000Y946500D01*
Y933500D01*
X308500Y927000D01*
X321500D01*
X328000Y933500D01*
Y946500D01*
X321500Y953000D01*
D02*
G37*
G36*
X897040Y939090D02*
X886040D01*
X880540Y933590D01*
Y922590D01*
X886040Y917090D01*
X897040D01*
X902540Y922590D01*
Y933590D01*
X897040Y939090D01*
D02*
G37*
G36*
X892810Y903554D02*
Y894360D01*
X902004D01*
X901809Y895842D01*
X900747Y898405D01*
X899057Y900607D01*
X896855Y902297D01*
X894292Y903359D01*
X892810Y903554D01*
D02*
G37*
G36*
X890270Y903554D02*
X888789Y903359D01*
X886225Y902297D01*
X884023Y900607D01*
X882333Y898405D01*
X881271Y895842D01*
X881076Y894360D01*
X890270D01*
Y903554D01*
D02*
G37*
G36*
Y891820D02*
X881076D01*
X881271Y890339D01*
X882333Y887775D01*
X884023Y885573D01*
X886225Y883883D01*
X888789Y882821D01*
X890270Y882626D01*
Y891820D01*
D02*
G37*
G36*
X902004D02*
X892810D01*
Y882626D01*
X894292Y882821D01*
X896855Y883883D01*
X899057Y885573D01*
X900747Y887775D01*
X901809Y890339D01*
X902004Y891820D01*
D02*
G37*
G36*
X315000Y903112D02*
X311606Y902665D01*
X308444Y901356D01*
X305728Y899272D01*
X303645Y896556D01*
X302335Y893394D01*
X301888Y890000D01*
X302335Y886606D01*
X303645Y883444D01*
X305728Y880728D01*
X308444Y878644D01*
X311606Y877335D01*
X315000Y876888D01*
X318394Y877335D01*
X321556Y878644D01*
X324272Y880728D01*
X326356Y883444D01*
X327665Y886606D01*
X328112Y890000D01*
X327665Y893394D01*
X326356Y896556D01*
X324272Y899272D01*
X321556Y901356D01*
X318394Y902665D01*
X315000Y903112D01*
D02*
G37*
G36*
X1110000Y868617D02*
X1107659Y868152D01*
X1105674Y866826D01*
X1104348Y864841D01*
X1103883Y862500D01*
X1104348Y860159D01*
X1105674Y858174D01*
X1107659Y856848D01*
X1110000Y856383D01*
X1112341Y856848D01*
X1114326Y858174D01*
X1115652Y860159D01*
X1116117Y862500D01*
X1115652Y864841D01*
X1114326Y866826D01*
X1112341Y868152D01*
X1110000Y868617D01*
D02*
G37*
G36*
X1177500Y861117D02*
X1175159Y860652D01*
X1173174Y859326D01*
X1171848Y857341D01*
X1171382Y855000D01*
X1171848Y852659D01*
X1173174Y850674D01*
X1175159Y849348D01*
X1177500Y848883D01*
X1179841Y849348D01*
X1181826Y850674D01*
X1183152Y852659D01*
X1183617Y855000D01*
X1183152Y857341D01*
X1181826Y859326D01*
X1179841Y860652D01*
X1177500Y861117D01*
D02*
G37*
G36*
X1320000Y913617D02*
X1317659Y913152D01*
X1315674Y911826D01*
X1314348Y909841D01*
X1313882Y907500D01*
X1314348Y905159D01*
X1315674Y903174D01*
X1317659Y901848D01*
X1318422Y901696D01*
Y851991D01*
X1318174Y851826D01*
X1316848Y849841D01*
X1316382Y847500D01*
X1316848Y845159D01*
X1318174Y843174D01*
X1320159Y841848D01*
X1322500Y841383D01*
X1324841Y841848D01*
X1326826Y843174D01*
X1328152Y845159D01*
X1328618Y847500D01*
X1328152Y849841D01*
X1326826Y851826D01*
X1326578Y851991D01*
Y904328D01*
X1326578Y904328D01*
X1326268Y905889D01*
X1325905Y906432D01*
X1326118Y907500D01*
X1325652Y909841D01*
X1324326Y911826D01*
X1322341Y913152D01*
X1320000Y913617D01*
D02*
G37*
G36*
X315000Y853112D02*
X311606Y852665D01*
X308444Y851356D01*
X305728Y849272D01*
X303645Y846556D01*
X302335Y843394D01*
X301888Y840000D01*
X302335Y836606D01*
X303645Y833444D01*
X305728Y830728D01*
X308444Y828644D01*
X311606Y827335D01*
X315000Y826888D01*
X318394Y827335D01*
X321556Y828644D01*
X324272Y830728D01*
X326356Y833444D01*
X327665Y836606D01*
X328112Y840000D01*
X327665Y843394D01*
X326356Y846556D01*
X324272Y849272D01*
X321556Y851356D01*
X318394Y852665D01*
X315000Y853112D01*
D02*
G37*
G36*
X1267500Y838618D02*
X1265159Y838152D01*
X1263174Y836826D01*
X1261848Y834841D01*
X1261383Y832500D01*
X1261848Y830159D01*
X1263174Y828174D01*
X1265159Y826848D01*
X1267500Y826383D01*
X1269841Y826848D01*
X1271826Y828174D01*
X1273152Y830159D01*
X1273617Y832500D01*
X1273152Y834841D01*
X1271826Y836826D01*
X1269841Y838152D01*
X1267500Y838618D01*
D02*
G37*
G36*
X980000Y933617D02*
X977659Y933152D01*
X975674Y931826D01*
X974348Y929841D01*
X973882Y927500D01*
X974348Y925159D01*
X975412Y923567D01*
Y802500D01*
X975761Y800744D01*
X976756Y799256D01*
X986475Y789537D01*
X986848Y787659D01*
X988174Y785674D01*
X990159Y784348D01*
X992500Y783883D01*
X994841Y784348D01*
X996826Y785674D01*
X998152Y787659D01*
X998617Y790000D01*
X998152Y792341D01*
X996826Y794326D01*
X994841Y795652D01*
X992963Y796025D01*
X984588Y804400D01*
Y923567D01*
X985652Y925159D01*
X986117Y927500D01*
X985652Y929841D01*
X984326Y931826D01*
X982341Y933152D01*
X980000Y933617D01*
D02*
G37*
G36*
X1228770Y777896D02*
Y773770D01*
X1232896D01*
X1232719Y774662D01*
X1231494Y776494D01*
X1229662Y777719D01*
X1228770Y777896D01*
D02*
G37*
G36*
X1226230D02*
X1225338Y777719D01*
X1223506Y776494D01*
X1222281Y774662D01*
X1222104Y773770D01*
X1226230D01*
Y777896D01*
D02*
G37*
G36*
X1232896Y771230D02*
X1228770D01*
Y767104D01*
X1229662Y767281D01*
X1231494Y768506D01*
X1232719Y770338D01*
X1232896Y771230D01*
D02*
G37*
G36*
X1226230D02*
X1222104D01*
X1222281Y770338D01*
X1223506Y768506D01*
X1225338Y767281D01*
X1226230Y767104D01*
Y771230D01*
D02*
G37*
G36*
X1196270Y770396D02*
Y766270D01*
X1200396D01*
X1200219Y767162D01*
X1198994Y768994D01*
X1197162Y770219D01*
X1196270Y770396D01*
D02*
G37*
G36*
X1193730D02*
X1192838Y770219D01*
X1191006Y768994D01*
X1189781Y767162D01*
X1189604Y766270D01*
X1193730D01*
Y770396D01*
D02*
G37*
G36*
X1118770D02*
Y766270D01*
X1122896D01*
X1122719Y767162D01*
X1121494Y768994D01*
X1119662Y770219D01*
X1118770Y770396D01*
D02*
G37*
G36*
X1116230D02*
X1115338Y770219D01*
X1113506Y768994D01*
X1112281Y767162D01*
X1112104Y766270D01*
X1116230D01*
Y770396D01*
D02*
G37*
G36*
X1200396Y763730D02*
X1196270D01*
Y759604D01*
X1197162Y759781D01*
X1198994Y761006D01*
X1200219Y762838D01*
X1200396Y763730D01*
D02*
G37*
G36*
X1193730D02*
X1189604D01*
X1189781Y762838D01*
X1191006Y761006D01*
X1192838Y759781D01*
X1193730Y759604D01*
Y763730D01*
D02*
G37*
G36*
X1122896D02*
X1118770D01*
Y759604D01*
X1119662Y759781D01*
X1121494Y761006D01*
X1122719Y762838D01*
X1122896Y763730D01*
D02*
G37*
G36*
X1116230D02*
X1112104D01*
X1112281Y762838D01*
X1113506Y761006D01*
X1115338Y759781D01*
X1116230Y759604D01*
Y763730D01*
D02*
G37*
G36*
X321500Y755500D02*
X308500D01*
X302000Y749000D01*
Y736000D01*
X308500Y729500D01*
X321500D01*
X328000Y736000D01*
Y749000D01*
X321500Y755500D01*
D02*
G37*
G36*
X957500Y933617D02*
X955159Y933152D01*
X953174Y931826D01*
X951848Y929841D01*
X951383Y927500D01*
X951848Y925159D01*
X952912Y923567D01*
Y685000D01*
X953261Y683244D01*
X954256Y681756D01*
X964256Y671756D01*
X965744Y670761D01*
X967500Y670412D01*
X1110743D01*
X1112498Y670761D01*
X1113987Y671756D01*
X1115744Y673513D01*
X1116739Y675002D01*
X1117088Y676757D01*
Y700412D01*
X1141067D01*
X1142659Y699348D01*
X1145000Y698883D01*
X1147341Y699348D01*
X1149326Y700674D01*
X1150652Y702659D01*
X1151117Y705000D01*
X1150652Y707341D01*
X1149326Y709326D01*
X1147341Y710652D01*
X1145000Y711118D01*
X1142659Y710652D01*
X1141067Y709588D01*
X1115000D01*
X1113244Y709239D01*
X1111756Y708244D01*
X1109256Y705744D01*
X1108261Y704256D01*
X1107912Y702500D01*
Y679588D01*
X969400D01*
X962088Y686900D01*
Y923567D01*
X963152Y925159D01*
X963617Y927500D01*
X963152Y929841D01*
X961826Y931826D01*
X959841Y933152D01*
X957500Y933617D01*
D02*
G37*
G36*
X315000Y705612D02*
X311606Y705165D01*
X308444Y703856D01*
X305728Y701772D01*
X303645Y699056D01*
X302335Y695894D01*
X301888Y692500D01*
X302335Y689106D01*
X303645Y685944D01*
X305728Y683228D01*
X308444Y681144D01*
X311606Y679835D01*
X315000Y679388D01*
X318394Y679835D01*
X321556Y681144D01*
X324272Y683228D01*
X326356Y685944D01*
X327665Y689106D01*
X328112Y692500D01*
X327665Y695894D01*
X326356Y699056D01*
X324272Y701772D01*
X321556Y703856D01*
X318394Y705165D01*
X315000Y705612D01*
D02*
G37*
G36*
Y655612D02*
X311606Y655165D01*
X308444Y653856D01*
X305728Y651772D01*
X303645Y649056D01*
X302335Y645894D01*
X301888Y642500D01*
X302335Y639106D01*
X303645Y635944D01*
X305728Y633228D01*
X308444Y631144D01*
X311606Y629835D01*
X315000Y629388D01*
X318394Y629835D01*
X321556Y631144D01*
X324272Y633228D01*
X326356Y635944D01*
X327665Y639106D01*
X328112Y642500D01*
X327665Y645894D01*
X326356Y649056D01*
X324272Y651772D01*
X321556Y653856D01*
X318394Y655165D01*
X315000Y655612D01*
D02*
G37*
G36*
X1546270Y926934D02*
Y921270D01*
X1551933D01*
X1551859Y921838D01*
X1551149Y923550D01*
X1550021Y925021D01*
X1548550Y926149D01*
X1546838Y926859D01*
X1546270Y926934D01*
D02*
G37*
G36*
X1543730D02*
X1543162Y926859D01*
X1541450Y926149D01*
X1539979Y925021D01*
X1538851Y923550D01*
X1538141Y921838D01*
X1538067Y921270D01*
X1543730D01*
Y926934D01*
D02*
G37*
G36*
X1551933Y918730D02*
X1546270D01*
Y913066D01*
X1546838Y913141D01*
X1548550Y913851D01*
X1550021Y914979D01*
X1551149Y916450D01*
X1551859Y918162D01*
X1551933Y918730D01*
D02*
G37*
G36*
X1543730D02*
X1538067D01*
X1538141Y918162D01*
X1538851Y916450D01*
X1539979Y914979D01*
X1541450Y913851D01*
X1543162Y913141D01*
X1543730Y913066D01*
Y918730D01*
D02*
G37*
G36*
X1628770Y889434D02*
Y883770D01*
X1634433D01*
X1634359Y884338D01*
X1633649Y886050D01*
X1632521Y887521D01*
X1631050Y888649D01*
X1629338Y889359D01*
X1628770Y889434D01*
D02*
G37*
G36*
X1626230D02*
X1625662Y889359D01*
X1623950Y888649D01*
X1622479Y887521D01*
X1621351Y886050D01*
X1620641Y884338D01*
X1620567Y883770D01*
X1626230D01*
Y889434D01*
D02*
G37*
G36*
X1634433Y881230D02*
X1628770D01*
Y875566D01*
X1629338Y875641D01*
X1631050Y876351D01*
X1632521Y877479D01*
X1633649Y878950D01*
X1634359Y880662D01*
X1634433Y881230D01*
D02*
G37*
G36*
X1626230D02*
X1620567D01*
X1620641Y880662D01*
X1621351Y878950D01*
X1622479Y877479D01*
X1623950Y876351D01*
X1625662Y875641D01*
X1626230Y875566D01*
Y881230D01*
D02*
G37*
G36*
X1715800Y860261D02*
Y849050D01*
X1727011D01*
X1726747Y851054D01*
X1725484Y854104D01*
X1723474Y856724D01*
X1720854Y858734D01*
X1717803Y859997D01*
X1715800Y860261D01*
D02*
G37*
G36*
X1713260Y860261D02*
X1711256Y859997D01*
X1708206Y858734D01*
X1705586Y856724D01*
X1703576Y854104D01*
X1702313Y851054D01*
X1702049Y849050D01*
X1713260D01*
Y860261D01*
D02*
G37*
G36*
X1515000Y896117D02*
X1512659Y895652D01*
X1510674Y894326D01*
X1509348Y892341D01*
X1508882Y890000D01*
X1509348Y887659D01*
X1510674Y885674D01*
X1511405Y885186D01*
Y857314D01*
X1510674Y856826D01*
X1509348Y854841D01*
X1508882Y852500D01*
X1509348Y850159D01*
X1510674Y848174D01*
X1512659Y846848D01*
X1515000Y846383D01*
X1517341Y846848D01*
X1519326Y848174D01*
X1520652Y850159D01*
X1521118Y852500D01*
X1520652Y854841D01*
X1519326Y856826D01*
X1518595Y857314D01*
Y885186D01*
X1519326Y885674D01*
X1520652Y887659D01*
X1521118Y890000D01*
X1520652Y892341D01*
X1519326Y894326D01*
X1517341Y895652D01*
X1515000Y896117D01*
D02*
G37*
G36*
X1713260Y846510D02*
X1702049D01*
X1702313Y844506D01*
X1703576Y841456D01*
X1705586Y838836D01*
X1708206Y836826D01*
X1711256Y835563D01*
X1713260Y835299D01*
Y846510D01*
D02*
G37*
G36*
X1727011D02*
X1715800D01*
Y835299D01*
X1717803Y835563D01*
X1720854Y836826D01*
X1723474Y838836D01*
X1725484Y841456D01*
X1726747Y844506D01*
X1727011Y846510D01*
D02*
G37*
G36*
X1530000Y888617D02*
X1527659Y888152D01*
X1525674Y886826D01*
X1524348Y884841D01*
X1523882Y882500D01*
X1524348Y880159D01*
X1525412Y878567D01*
Y846900D01*
X1519256Y840744D01*
X1518261Y839256D01*
X1517912Y837500D01*
Y823933D01*
X1516848Y822341D01*
X1516382Y820000D01*
X1516848Y817659D01*
X1518174Y815674D01*
X1520159Y814348D01*
X1522500Y813883D01*
X1524841Y814348D01*
X1526826Y815674D01*
X1528152Y817659D01*
X1528618Y820000D01*
X1528152Y822341D01*
X1527088Y823933D01*
Y835600D01*
X1533244Y841756D01*
X1534239Y843244D01*
X1534588Y845000D01*
Y878567D01*
X1535652Y880159D01*
X1536118Y882500D01*
X1535652Y884841D01*
X1534326Y886826D01*
X1532341Y888152D01*
X1530000Y888617D01*
D02*
G37*
G36*
X1714530Y810892D02*
X1711136Y810445D01*
X1707974Y809136D01*
X1705258Y807052D01*
X1703174Y804336D01*
X1701865Y801174D01*
X1701418Y797780D01*
X1701865Y794386D01*
X1703174Y791224D01*
X1705258Y788508D01*
X1707974Y786424D01*
X1711136Y785115D01*
X1714530Y784668D01*
X1717924Y785115D01*
X1721086Y786424D01*
X1723802Y788508D01*
X1725885Y791224D01*
X1727195Y794386D01*
X1727642Y797780D01*
X1727195Y801174D01*
X1725885Y804336D01*
X1723802Y807052D01*
X1721086Y809136D01*
X1717924Y810445D01*
X1714530Y810892D01*
D02*
G37*
G36*
X1721030Y760780D02*
X1708030D01*
X1701530Y754280D01*
Y741280D01*
X1708030Y734780D01*
X1721030D01*
X1727530Y741280D01*
Y754280D01*
X1721030Y760780D01*
D02*
G37*
G36*
X1550500Y785700D02*
X1524500D01*
Y759700D01*
X1530309D01*
X1530650Y758430D01*
X1528228Y756572D01*
X1526145Y753856D01*
X1524835Y750694D01*
X1524388Y747300D01*
X1524835Y743906D01*
X1526145Y740744D01*
X1528228Y738028D01*
X1530944Y735945D01*
X1534106Y734635D01*
X1537500Y734188D01*
X1540894Y734635D01*
X1544056Y735945D01*
X1546772Y738028D01*
X1548855Y740744D01*
X1550165Y743906D01*
X1550612Y747300D01*
X1550165Y750694D01*
X1548855Y753856D01*
X1546772Y756572D01*
X1544350Y758430D01*
X1544691Y759700D01*
X1550500D01*
Y785700D01*
D02*
G37*
G36*
X1626270Y651934D02*
Y646270D01*
X1631933D01*
X1631859Y646838D01*
X1631149Y648550D01*
X1630021Y650021D01*
X1628550Y651149D01*
X1626838Y651859D01*
X1626270Y651934D01*
D02*
G37*
G36*
X1623730D02*
X1623162Y651859D01*
X1621450Y651149D01*
X1619979Y650021D01*
X1618851Y648550D01*
X1618141Y646838D01*
X1618067Y646270D01*
X1623730D01*
Y651934D01*
D02*
G37*
G36*
X1631933Y643730D02*
X1626270D01*
Y638066D01*
X1626838Y638141D01*
X1628550Y638851D01*
X1630021Y639979D01*
X1631149Y641450D01*
X1631859Y643162D01*
X1631933Y643730D01*
D02*
G37*
G36*
X1623730D02*
X1618067D01*
X1618141Y643162D01*
X1618851Y641450D01*
X1619979Y639979D01*
X1621450Y638851D01*
X1623162Y638141D01*
X1623730Y638066D01*
Y643730D01*
D02*
G37*
%LPD*%
D29*
X1317500Y945743D02*
X1319257Y947500D01*
X1317500Y927500D02*
Y945743D01*
X1319257Y947500D02*
X1370000D01*
X1522500Y820000D02*
Y837500D01*
X1530000Y845000D02*
Y882500D01*
X1522500Y837500D02*
X1530000Y845000D01*
X1307500Y917500D02*
X1317500Y927500D01*
X1307500Y830000D02*
Y917500D01*
X1310000Y827500D02*
X1320000D01*
X1307500Y830000D02*
X1310000Y827500D01*
X957500Y685000D02*
Y927500D01*
Y685000D02*
X967500Y675000D01*
X1110743D01*
X1112500Y676757D02*
Y702500D01*
X1110743Y675000D02*
X1112500Y676757D01*
Y702500D02*
X1115000Y705000D01*
X1145000D01*
X980000Y802500D02*
X992500Y790000D01*
X980000Y802500D02*
Y927500D01*
D30*
X1515000Y852500D02*
Y890000D01*
D33*
X1320000Y906828D02*
Y907500D01*
Y906828D02*
X1322500Y904328D01*
Y847500D02*
Y904328D01*
D34*
X316230Y1055770D02*
D03*
X1307100Y990000D02*
D03*
X1332500D02*
D03*
X1281700D02*
D03*
X541020Y1045610D02*
D03*
X1537500Y747300D02*
D03*
X1714530Y797780D02*
D03*
Y847780D02*
D03*
X315000Y890000D02*
D03*
Y840000D02*
D03*
Y692500D02*
D03*
Y642500D02*
D03*
D35*
X316230Y1105770D02*
D03*
X541020Y1095610D02*
D03*
X1714530Y747780D02*
D03*
X315000Y940000D02*
D03*
Y742500D02*
D03*
D36*
X1357900Y990000D02*
D03*
D37*
X891540Y893090D02*
D03*
D38*
Y928090D02*
D03*
D39*
X1537500Y772700D02*
D03*
D40*
X1310000Y960000D02*
D03*
X1190000Y990000D02*
D03*
X1100000Y975000D02*
D03*
X1530000Y882500D02*
D03*
X1522500Y820000D02*
D03*
X1515000Y852500D02*
D03*
Y890000D02*
D03*
X1370000Y947500D02*
D03*
X1320000Y827500D02*
D03*
Y907500D02*
D03*
X1322500Y847500D02*
D03*
X1117500Y765000D02*
D03*
X1267500Y832500D02*
D03*
X1177500Y855000D02*
D03*
X957500Y927500D02*
D03*
X1145000Y705000D02*
D03*
X980000Y927500D02*
D03*
X992500Y790000D02*
D03*
X1227500Y772500D02*
D03*
X1195000Y765000D02*
D03*
X1110000Y862500D02*
D03*
X707500Y1170000D02*
D03*
X665000D02*
D03*
X707500Y1200000D02*
D03*
X665000D02*
D03*
D41*
X1625000Y645000D02*
D03*
X1545000Y920000D02*
D03*
X1627500Y882500D02*
D03*
%TF.MD5,bd1ab62fd98c34459eab60c33d11be52*%
M02*
