%TF.GenerationSoftware,Altium Limited,Altium Designer,20.0.13 (296)*%
G04 Layer_Color=16711935*
%FSLAX44Y44*%
%MOMM*%
%TF.FileFunction,Other,Mechanical_13*%
%TF.Part,Single*%
G01*
G75*
%TA.AperFunction,NonConductor*%
%ADD64C,0.2000*%
%ADD68C,0.1270*%
D64*
X1082400Y940700D02*
G03*
X1082400Y940700I-1000J0D01*
G01*
X771000Y1046500D02*
G03*
X771000Y1046500I-1000J0D01*
G01*
X649780Y1057310D02*
G03*
X649780Y1057310I-1000J0D01*
G01*
X1000200Y791308D02*
G03*
X1000200Y791308I-1000J0D01*
G01*
X1157700Y705600D02*
G03*
X1157700Y705600I-1000J0D01*
G01*
D68*
X1025975Y908225D02*
X1091025D01*
X1025975Y873175D02*
Y908225D01*
Y873175D02*
X1091025D01*
Y908225D01*
X710000Y1032500D02*
X830000D01*
Y912500D02*
Y1032500D01*
X710000Y912500D02*
X830000D01*
X710000D02*
Y1032500D01*
X635980Y1121780D02*
Y1210990D01*
Y1121780D02*
X737580D01*
Y1210990D01*
X635980D02*
X737580D01*
X1020000Y803207D02*
X1080000D01*
X1020000Y703207D02*
Y803207D01*
Y703207D02*
X1080000D01*
Y803207D01*
X1177500Y717500D02*
X1237500D01*
X1177500Y617500D02*
Y717500D01*
Y617500D02*
X1237500D01*
Y717500D01*
%TF.MD5,86dade0f89a905aab635a51347e33198*%
M02*
