%TF.GenerationSoftware,Altium Limited,Altium Designer,20.0.13 (296)*%
G04 Layer_Physical_Order=2*
G04 Layer_Color=32768*
%FSLAX44Y44*%
%MOMM*%
%TF.FileFunction,Copper,L2,Inr,Plane*%
%TF.Part,Single*%
G01*
G75*
%TA.AperFunction,NonConductor*%
%ADD42C,1.0160*%
%ADD43C,5.0000*%
%TA.AperFunction,ComponentPad*%
G04:AMPARAMS|DCode=44|XSize=2.724mm|YSize=2.724mm|CornerRadius=0mm|HoleSize=0mm|Usage=FLASHONLY|Rotation=0.000|XOffset=0mm|YOffset=0mm|HoleType=Round|Shape=Relief|Width=0.254mm|Gap=0.254mm|Entries=4|*
%AMTHD44*
7,0,0,2.7240,2.2160,0.2540,45*
%
%ADD44THD44*%
%ADD45C,2.2160*%
%ADD46C,2.1160*%
G04:AMPARAMS|DCode=47|XSize=2.624mm|YSize=2.624mm|CornerRadius=0mm|HoleSize=0mm|Usage=FLASHONLY|Rotation=0.000|XOffset=0mm|YOffset=0mm|HoleType=Round|Shape=Relief|Width=0.254mm|Gap=0.254mm|Entries=4|*
%AMTHD47*
7,0,0,2.6240,2.1160,0.2540,45*
%
%ADD47THD47*%
%ADD48C,1.9160*%
G04:AMPARAMS|DCode=49|XSize=2.424mm|YSize=2.424mm|CornerRadius=0mm|HoleSize=0mm|Usage=FLASHONLY|Rotation=0.000|XOffset=0mm|YOffset=0mm|HoleType=Round|Shape=Relief|Width=0.254mm|Gap=0.254mm|Entries=4|*
%AMTHD49*
7,0,0,2.4240,1.9160,0.2540,45*
%
%ADD49THD49*%
G04:AMPARAMS|DCode=50|XSize=2.324mm|YSize=2.324mm|CornerRadius=0mm|HoleSize=0mm|Usage=FLASHONLY|Rotation=0.000|XOffset=0mm|YOffset=0mm|HoleType=Round|Shape=Relief|Width=0.254mm|Gap=0.254mm|Entries=4|*
%AMTHD50*
7,0,0,2.3240,1.8160,0.2540,45*
%
%ADD50THD50*%
%ADD51C,1.8160*%
%TA.AperFunction,ViaPad*%
%ADD52C,1.3160*%
G04:AMPARAMS|DCode=53|XSize=2.024mm|YSize=2.024mm|CornerRadius=0mm|HoleSize=0mm|Usage=FLASHONLY|Rotation=0.000|XOffset=0mm|YOffset=0mm|HoleType=Round|Shape=Relief|Width=0.254mm|Gap=0.254mm|Entries=4|*
%AMTHD53*
7,0,0,2.0240,1.5160,0.2540,45*
%
%ADD53THD53*%
G04:AMPARAMS|DCode=54|XSize=1.824mm|YSize=1.824mm|CornerRadius=0mm|HoleSize=0mm|Usage=FLASHONLY|Rotation=0.000|XOffset=0mm|YOffset=0mm|HoleType=Round|Shape=Relief|Width=0.254mm|Gap=0.254mm|Entries=4|*
%AMTHD54*
7,0,0,1.8240,1.3160,0.2540,45*
%
%ADD54THD54*%
D42*
X140000Y520000D02*
X1890000Y520000D01*
X1890000Y1280000D02*
X1890000Y520000D01*
X140000Y1280000D02*
X1890000D01*
X140000Y520000D02*
X140000Y1280000D01*
D43*
X1430000Y540000D02*
X1430000Y1260000D01*
D44*
X316230Y1055770D02*
D03*
X1714530Y847780D02*
D03*
D45*
X316230Y1105770D02*
D03*
X1714530Y747780D02*
D03*
Y797780D02*
D03*
X315000Y940000D02*
D03*
Y890000D02*
D03*
Y840000D02*
D03*
Y742500D02*
D03*
Y692500D02*
D03*
Y642500D02*
D03*
D46*
X1307100Y990000D02*
D03*
X1332500D02*
D03*
X1357900D02*
D03*
X1537500Y772700D02*
D03*
Y747300D02*
D03*
D47*
X1281700Y990000D02*
D03*
D48*
X541020Y1095610D02*
D03*
D49*
Y1045610D02*
D03*
D50*
X891540Y893090D02*
D03*
D51*
Y928090D02*
D03*
D52*
X1310000Y960000D02*
D03*
X1190000Y990000D02*
D03*
X1100000Y975000D02*
D03*
X1530000Y882500D02*
D03*
X1522500Y820000D02*
D03*
X1515000Y852500D02*
D03*
Y890000D02*
D03*
X1370000Y947500D02*
D03*
X1320000Y827500D02*
D03*
Y907500D02*
D03*
X1322500Y847500D02*
D03*
X1267500Y832500D02*
D03*
X1177500Y855000D02*
D03*
X957500Y927500D02*
D03*
X1145000Y705000D02*
D03*
X980000Y927500D02*
D03*
X992500Y790000D02*
D03*
X1110000Y862500D02*
D03*
D53*
X1625000Y645000D02*
D03*
X1545000Y920000D02*
D03*
X1627500Y882500D02*
D03*
D54*
X1117500Y765000D02*
D03*
X1227500Y772500D02*
D03*
X1195000Y765000D02*
D03*
X707500Y1170000D02*
D03*
X665000D02*
D03*
X707500Y1200000D02*
D03*
X665000D02*
D03*
%TF.MD5,c0c3b43669eb64920ed8560137285265*%
M02*
