%TF.GenerationSoftware,Altium Limited,Altium Designer,20.0.13 (296)*%
G04 Layer_Color=255*
%FSLAX44Y44*%
%MOMM*%
%TF.FileFunction,Pads,Bot*%
%TF.Part,Single*%
G01*
G75*
%TA.AperFunction,ComponentPad*%
%ADD34C,2.0000*%
G04:AMPARAMS|DCode=35|XSize=2mm|YSize=2mm|CornerRadius=0mm|HoleSize=0mm|Usage=FLASHONLY|Rotation=270.000|XOffset=0mm|YOffset=0mm|HoleType=Round|Shape=Octagon|*
%AMOCTAGOND35*
4,1,8,-0.5000,-1.0000,0.5000,-1.0000,1.0000,-0.5000,1.0000,0.5000,0.5000,1.0000,-0.5000,1.0000,-1.0000,0.5000,-1.0000,-0.5000,-0.5000,-1.0000,0.0*
%
%ADD35OCTAGOND35*%

%ADD36R,2.0000X2.0000*%
%ADD37C,1.6000*%
G04:AMPARAMS|DCode=38|XSize=1.6mm|YSize=1.6mm|CornerRadius=0mm|HoleSize=0mm|Usage=FLASHONLY|Rotation=270.000|XOffset=0mm|YOffset=0mm|HoleType=Round|Shape=Octagon|*
%AMOCTAGOND38*
4,1,8,-0.4000,-0.8000,0.4000,-0.8000,0.8000,-0.4000,0.8000,0.4000,0.4000,0.8000,-0.4000,0.8000,-0.8000,0.4000,-0.8000,-0.4000,-0.4000,-0.8000,0.0*
%
%ADD38OCTAGOND38*%

%ADD39R,2.0000X2.0000*%
D34*
X316230Y1055770D02*
D03*
X1307100Y990000D02*
D03*
X1332500D02*
D03*
X1281700D02*
D03*
X541020Y1045610D02*
D03*
X1537500Y747300D02*
D03*
X1714530Y797780D02*
D03*
Y847780D02*
D03*
X315000Y890000D02*
D03*
Y840000D02*
D03*
Y692500D02*
D03*
Y642500D02*
D03*
D35*
X316230Y1105770D02*
D03*
X541020Y1095610D02*
D03*
X1714530Y747780D02*
D03*
X315000Y940000D02*
D03*
Y742500D02*
D03*
D36*
X1357900Y990000D02*
D03*
D37*
X891540Y893090D02*
D03*
D38*
Y928090D02*
D03*
D39*
X1537500Y772700D02*
D03*
%TF.MD5,9184427ab15d38968ea5d8dacbf5d482*%
M02*
