%TF.GenerationSoftware,Altium Limited,Altium Designer,20.0.13 (296)*%
G04 Layer_Physical_Order=1*
G04 Layer_Color=255*
%FSLAX44Y44*%
%MOMM*%
%TF.FileFunction,Copper,L1,Top,Signal*%
%TF.Part,Single*%
G01*
G75*
%TA.AperFunction,SMDPad,CuDef*%
%ADD10R,0.8500X0.8500*%
%ADD11R,0.8500X0.8500*%
G04:AMPARAMS|DCode=12|XSize=1.31mm|YSize=3.24mm|CornerRadius=0.0983mm|HoleSize=0mm|Usage=FLASHONLY|Rotation=270.000|XOffset=0mm|YOffset=0mm|HoleType=Round|Shape=RoundedRectangle|*
%AMROUNDEDRECTD12*
21,1,1.3100,3.0435,0,0,270.0*
21,1,1.1135,3.2400,0,0,270.0*
1,1,0.1965,-1.5218,-0.5568*
1,1,0.1965,-1.5218,0.5568*
1,1,0.1965,1.5218,0.5568*
1,1,0.1965,1.5218,-0.5568*
%
%ADD12ROUNDEDRECTD12*%
G04:AMPARAMS|DCode=13|XSize=1.31mm|YSize=0.93mm|CornerRadius=0.0698mm|HoleSize=0mm|Usage=FLASHONLY|Rotation=270.000|XOffset=0mm|YOffset=0mm|HoleType=Round|Shape=RoundedRectangle|*
%AMROUNDEDRECTD13*
21,1,1.3100,0.7905,0,0,270.0*
21,1,1.1705,0.9300,0,0,270.0*
1,1,0.1395,-0.3953,-0.5853*
1,1,0.1395,-0.3953,0.5853*
1,1,0.1395,0.3953,0.5853*
1,1,0.1395,0.3953,-0.5853*
%
%ADD13ROUNDEDRECTD13*%
%ADD14R,2.4000X3.3000*%
%ADD15R,5.4000X2.9000*%
%ADD16R,10.8400X7.8800*%
%ADD17R,0.9900X3.7900*%
%ADD18R,3.3000X2.4000*%
%ADD19R,2.4000X1.4000*%
%ADD20R,1.6000X1.2000*%
%ADD21O,0.3000X1.4000*%
%ADD22O,1.4000X0.3000*%
%ADD23R,1.1000X1.2000*%
%ADD24R,2.0000X0.6000*%
%ADD25R,2.0000X0.7000*%
%ADD26R,0.9100X1.2200*%
%ADD27R,0.6000X1.0000*%
%TA.AperFunction,Conductor*%
%ADD28C,0.6000*%
%ADD29C,0.3000*%
%ADD30C,0.1053*%
%ADD31C,1.5000*%
%ADD32C,1.0000*%
%ADD33C,0.2000*%
%TA.AperFunction,ComponentPad*%
%ADD34C,2.0000*%
G04:AMPARAMS|DCode=35|XSize=2mm|YSize=2mm|CornerRadius=0mm|HoleSize=0mm|Usage=FLASHONLY|Rotation=270.000|XOffset=0mm|YOffset=0mm|HoleType=Round|Shape=Octagon|*
%AMOCTAGOND35*
4,1,8,-0.5000,-1.0000,0.5000,-1.0000,1.0000,-0.5000,1.0000,0.5000,0.5000,1.0000,-0.5000,1.0000,-1.0000,0.5000,-1.0000,-0.5000,-0.5000,-1.0000,0.0*
%
%ADD35OCTAGOND35*%

%ADD36R,2.0000X2.0000*%
%ADD37C,1.6000*%
G04:AMPARAMS|DCode=38|XSize=1.6mm|YSize=1.6mm|CornerRadius=0mm|HoleSize=0mm|Usage=FLASHONLY|Rotation=270.000|XOffset=0mm|YOffset=0mm|HoleType=Round|Shape=Octagon|*
%AMOCTAGOND38*
4,1,8,-0.4000,-0.8000,0.4000,-0.8000,0.8000,-0.4000,0.8000,0.4000,0.4000,0.8000,-0.4000,0.8000,-0.8000,0.4000,-0.8000,-0.4000,-0.4000,-0.8000,0.0*
%
%ADD38OCTAGOND38*%

%ADD39R,2.0000X2.0000*%
%TA.AperFunction,ViaPad*%
%ADD40C,0.6000*%
%ADD41C,0.9000*%
G36*
X1410000Y524354D02*
X144354Y524354D01*
X144354Y1275646D01*
X1410000D01*
Y524354D01*
D02*
G37*
G36*
X1885646Y524354D02*
X1460000Y524354D01*
X1460000Y1275646D01*
X1885646D01*
X1885646Y524354D01*
D02*
G37*
%LPC*%
G36*
X743520Y1232750D02*
X688050D01*
Y1192080D01*
X743520D01*
Y1232750D01*
D02*
G37*
G36*
X685510D02*
X630040D01*
Y1192080D01*
X685510D01*
Y1232750D01*
D02*
G37*
G36*
X743520Y1189540D02*
X688050D01*
Y1148870D01*
X743520D01*
Y1189540D01*
D02*
G37*
G36*
X685510D02*
X630040D01*
Y1148870D01*
X685510D01*
Y1189540D01*
D02*
G37*
G36*
X399500Y1119500D02*
X369500D01*
Y1110591D01*
X329230D01*
Y1112270D01*
X322730Y1118770D01*
X309730D01*
X303230Y1112270D01*
Y1099270D01*
X309730Y1092770D01*
X314859D01*
X315118Y1092511D01*
X315118Y1092511D01*
X317311Y1090828D01*
X319865Y1089770D01*
X322607Y1089409D01*
X322607Y1089409D01*
X369500D01*
Y1080500D01*
X399500D01*
Y1119500D01*
D02*
G37*
G36*
X728270Y1104800D02*
X722050D01*
Y1084580D01*
X728270D01*
Y1104800D01*
D02*
G37*
G36*
X719510D02*
X713290D01*
Y1084580D01*
X719510D01*
Y1104800D01*
D02*
G37*
G36*
X694270D02*
X688050D01*
Y1084580D01*
X694270D01*
Y1104800D01*
D02*
G37*
G36*
X631630Y1068690D02*
X626110D01*
Y1063170D01*
X631630D01*
Y1068690D01*
D02*
G37*
G36*
X623570D02*
X618050D01*
Y1063170D01*
X623570D01*
Y1068690D01*
D02*
G37*
G36*
X728270Y1082040D02*
X722050D01*
Y1061820D01*
X728270D01*
Y1082040D01*
D02*
G37*
G36*
X719510D02*
X713290D01*
Y1061820D01*
X719510D01*
Y1082040D01*
D02*
G37*
G36*
X694270Y1082040D02*
X688050D01*
Y1061820D01*
X694270D01*
Y1082040D01*
D02*
G37*
G36*
X317500Y1068251D02*
Y1057040D01*
X328711D01*
X328447Y1059044D01*
X327184Y1062094D01*
X325174Y1064714D01*
X322554Y1066724D01*
X319504Y1067987D01*
X317500Y1068251D01*
D02*
G37*
G36*
X314960D02*
X312956Y1067987D01*
X309906Y1066724D01*
X307286Y1064714D01*
X305276Y1062094D01*
X304013Y1059044D01*
X303749Y1057040D01*
X314960D01*
Y1068251D01*
D02*
G37*
G36*
X542290Y1058091D02*
Y1046880D01*
X553501D01*
X553237Y1048884D01*
X551974Y1051934D01*
X549964Y1054554D01*
X547344Y1056564D01*
X544294Y1057827D01*
X542290Y1058091D01*
D02*
G37*
G36*
X539750D02*
X537746Y1057827D01*
X534696Y1056564D01*
X532076Y1054554D01*
X530066Y1051934D01*
X528803Y1048884D01*
X528539Y1046880D01*
X539750D01*
Y1058091D01*
D02*
G37*
G36*
X328711Y1054500D02*
X317500D01*
Y1043289D01*
X319504Y1043553D01*
X322554Y1044816D01*
X325174Y1046826D01*
X327184Y1049446D01*
X328447Y1052496D01*
X328711Y1054500D01*
D02*
G37*
G36*
X314960D02*
X303749D01*
X304013Y1052496D01*
X305276Y1049446D01*
X307286Y1046826D01*
X309906Y1044816D01*
X312956Y1043553D01*
X314960Y1043289D01*
Y1054500D01*
D02*
G37*
G36*
X553501Y1044340D02*
X542290D01*
Y1033129D01*
X544294Y1033393D01*
X547344Y1034656D01*
X549964Y1036666D01*
X551974Y1039286D01*
X553237Y1042336D01*
X553501Y1044340D01*
D02*
G37*
G36*
X539750D02*
X528539D01*
X528803Y1042336D01*
X530066Y1039286D01*
X532076Y1036666D01*
X534696Y1034656D01*
X537746Y1033393D01*
X539750Y1033129D01*
Y1044340D01*
D02*
G37*
G36*
X465500Y1119500D02*
X435500D01*
Y1080500D01*
X465500D01*
Y1086913D01*
X530217D01*
X534520Y1082610D01*
X547520D01*
X549929Y1085019D01*
X608803D01*
X617351Y1076471D01*
X617351Y1076471D01*
X618050Y1075935D01*
Y1071230D01*
X624840D01*
X631630D01*
Y1073369D01*
X644830D01*
Y1061360D01*
X646135D01*
X646967Y1060401D01*
X640029Y1011833D01*
X640041Y1011615D01*
X639998Y1011401D01*
X640073Y1011024D01*
X640094Y1010641D01*
X640189Y1010444D01*
X640231Y1010230D01*
X640444Y1009911D01*
X640610Y1009565D01*
X640773Y1009419D01*
X640894Y1009238D01*
X641213Y1009025D01*
X641499Y1008768D01*
X641705Y1008696D01*
X641887Y1008575D01*
X642263Y1008500D01*
X642625Y1008372D01*
X642843Y1008384D01*
X643057Y1008342D01*
X740000Y1008342D01*
Y1004500D01*
X800000D01*
Y1008342D01*
X808140D01*
X809311Y1008575D01*
X810303Y1009238D01*
X810966Y1010230D01*
X811199Y1011401D01*
X811199Y1041382D01*
X879966D01*
X886383Y1034966D01*
Y939090D01*
X886040D01*
X881158Y934208D01*
X800000D01*
Y940500D01*
X740000D01*
Y905500D01*
X800000D01*
Y921973D01*
X881158D01*
X886040Y917090D01*
X897040D01*
X901172Y921223D01*
X989080D01*
Y917590D01*
X1011080D01*
Y920472D01*
X1027878D01*
Y918298D01*
X1028165Y916855D01*
X1028982Y915632D01*
X1030205Y914815D01*
X1031647Y914528D01*
X1039553D01*
X1040995Y914815D01*
X1042218Y915632D01*
X1043035Y916855D01*
X1043322Y918298D01*
Y930003D01*
X1043035Y931445D01*
X1042218Y932668D01*
X1040995Y933485D01*
X1039553Y933773D01*
X1031647D01*
X1030205Y933485D01*
X1029041Y932708D01*
X1011080D01*
Y935590D01*
X1004588D01*
Y1022912D01*
X1370412D01*
Y1003000D01*
X1344900D01*
Y997191D01*
X1343630Y996850D01*
X1341772Y999272D01*
X1339056Y1001356D01*
X1335894Y1002665D01*
X1332500Y1003112D01*
X1329106Y1002665D01*
X1325944Y1001356D01*
X1323228Y999272D01*
X1321145Y996556D01*
X1320487Y994969D01*
X1319113D01*
X1318456Y996556D01*
X1316372Y999272D01*
X1313656Y1001356D01*
X1310494Y1002665D01*
X1307100Y1003112D01*
X1303706Y1002665D01*
X1300544Y1001356D01*
X1297828Y999272D01*
X1295744Y996556D01*
X1294838Y994368D01*
X1293464D01*
X1292654Y996324D01*
X1290644Y998944D01*
X1288024Y1000954D01*
X1284974Y1002217D01*
X1282970Y1002481D01*
Y990000D01*
Y977519D01*
X1284974Y977783D01*
X1288024Y979046D01*
X1290644Y981056D01*
X1292654Y983676D01*
X1293464Y985632D01*
X1294838D01*
X1295744Y983444D01*
X1297828Y980728D01*
X1300544Y978644D01*
X1301138Y978399D01*
X1301385Y977153D01*
X1298311Y974078D01*
X1263672D01*
X1263671Y974078D01*
X1262111Y973768D01*
X1260788Y972884D01*
X1260788Y972884D01*
X1259616Y971712D01*
X1258732Y970389D01*
X1257596Y969569D01*
X1257500Y969588D01*
X1255744Y969239D01*
X1255000Y968742D01*
X1254256Y969239D01*
X1252500Y969588D01*
X1250744Y969239D01*
X1250000Y968742D01*
X1249256Y969239D01*
X1247500Y969588D01*
X1245744Y969239D01*
X1245000Y968742D01*
X1244803Y968874D01*
X1243768Y969611D01*
X1244078Y971172D01*
X1244078Y971172D01*
Y975250D01*
X1247793D01*
Y975710D01*
X1253273D01*
Y982500D01*
Y989290D01*
X1247793D01*
Y989750D01*
X1233292D01*
Y975250D01*
X1233292D01*
X1233055Y974078D01*
X1228672D01*
X1228672Y974078D01*
X1227111Y973768D01*
X1225788Y972884D01*
X1225788Y972884D01*
X1224616Y971712D01*
X1223732Y970389D01*
X1222596Y969569D01*
X1222500Y969588D01*
X1220744Y969239D01*
X1220000Y968742D01*
X1219256Y969239D01*
X1217500Y969588D01*
X1215744Y969239D01*
X1214586Y968465D01*
X1214076Y968806D01*
X1212500Y969119D01*
X1212088Y969457D01*
Y970644D01*
X1212239Y970869D01*
X1212588Y972625D01*
Y975250D01*
X1215250D01*
Y975710D01*
X1220730D01*
Y982500D01*
Y989290D01*
X1215250D01*
Y989750D01*
X1200750D01*
Y987088D01*
X1199400D01*
X1196025Y990463D01*
X1195652Y992341D01*
X1194326Y994326D01*
X1192341Y995652D01*
X1190000Y996117D01*
X1187659Y995652D01*
X1185674Y994326D01*
X1184348Y992341D01*
X1183883Y990000D01*
X1184348Y987659D01*
X1185674Y985674D01*
X1187659Y984348D01*
X1189537Y983975D01*
X1194256Y979256D01*
X1195744Y978261D01*
X1197500Y977912D01*
X1200750D01*
Y975250D01*
X1203011D01*
X1203327Y973980D01*
X1203261Y973881D01*
X1202912Y972125D01*
Y965000D01*
Y954000D01*
X1203261Y952244D01*
X1204256Y950756D01*
X1205744Y949761D01*
X1207500Y949412D01*
X1209256Y949761D01*
X1210414Y950535D01*
X1210924Y950194D01*
X1211230Y950134D01*
Y951482D01*
X1211739Y952244D01*
X1212089Y954000D01*
Y959500D01*
X1212911D01*
Y954000D01*
X1213261Y952244D01*
X1213770Y951482D01*
Y950134D01*
X1214076Y950194D01*
X1214586Y950535D01*
X1215744Y949761D01*
X1217500Y949412D01*
X1219256Y949761D01*
X1220000Y950258D01*
X1220744Y949761D01*
X1222500Y949412D01*
X1224256Y949761D01*
X1225000Y950258D01*
X1225744Y949761D01*
X1227500Y949412D01*
X1229256Y949761D01*
X1230000Y950258D01*
X1230744Y949761D01*
X1232500Y949412D01*
X1234256Y949761D01*
X1235000Y950258D01*
X1235744Y949761D01*
X1237500Y949412D01*
X1239256Y949761D01*
X1240000Y950258D01*
X1240744Y949761D01*
X1242500Y949412D01*
X1244256Y949761D01*
X1245000Y950258D01*
X1245744Y949761D01*
X1247500Y949412D01*
X1249256Y949761D01*
X1250000Y950258D01*
X1250744Y949761D01*
X1252500Y949412D01*
X1254256Y949761D01*
X1255000Y950258D01*
X1255744Y949761D01*
X1257500Y949412D01*
X1259256Y949761D01*
X1260000Y950258D01*
X1260744Y949761D01*
X1262500Y949412D01*
X1264256Y949761D01*
X1265744Y950756D01*
X1266739Y952244D01*
X1267088Y954000D01*
Y965000D01*
X1267844Y965922D01*
X1300000D01*
X1300000Y965922D01*
X1301561Y966232D01*
X1302884Y967116D01*
X1309884Y974116D01*
X1309884Y974116D01*
X1310768Y975439D01*
X1311078Y977000D01*
X1311078Y977000D01*
Y977577D01*
X1313656Y978644D01*
X1316372Y980728D01*
X1318456Y983444D01*
X1319113Y985031D01*
X1320487D01*
X1321145Y983444D01*
X1323228Y980728D01*
X1325944Y978644D01*
X1328422Y977618D01*
Y926078D01*
X1306790D01*
Y929230D01*
X1300000D01*
Y931770D01*
X1306790D01*
Y937250D01*
X1307250D01*
Y942662D01*
X1309006Y943011D01*
X1310494Y944006D01*
X1313244Y946756D01*
X1314239Y948244D01*
X1314588Y950000D01*
Y956067D01*
X1315652Y957659D01*
X1316118Y960000D01*
X1315652Y962341D01*
X1314326Y964326D01*
X1312341Y965652D01*
X1310000Y966117D01*
X1307659Y965652D01*
X1305674Y964326D01*
X1304348Y962341D01*
X1303882Y960000D01*
X1304348Y957659D01*
X1305412Y956067D01*
Y951900D01*
X1305349Y951838D01*
X1302750D01*
X1302307Y951750D01*
X1292750D01*
Y949489D01*
X1291480Y949173D01*
X1291381Y949239D01*
X1289625Y949588D01*
X1271500D01*
X1269744Y949239D01*
X1268256Y948244D01*
X1267261Y946756D01*
X1266912Y945000D01*
X1267261Y943244D01*
X1268035Y942086D01*
X1267694Y941576D01*
X1267634Y941270D01*
X1268982D01*
X1269744Y940761D01*
X1271500Y940411D01*
X1277000D01*
Y939589D01*
X1271500D01*
X1269744Y939239D01*
X1268982Y938730D01*
X1267634D01*
X1267694Y938424D01*
X1268035Y937914D01*
X1267261Y936756D01*
X1266912Y935000D01*
X1267261Y933244D01*
X1267758Y932500D01*
X1267261Y931756D01*
X1266912Y930000D01*
X1267261Y928244D01*
X1267758Y927500D01*
X1267261Y926756D01*
X1266912Y925000D01*
X1267261Y923244D01*
X1267758Y922500D01*
X1267261Y921756D01*
X1266912Y920000D01*
X1267261Y918244D01*
X1267758Y917500D01*
X1267261Y916756D01*
X1266912Y915000D01*
X1267261Y913244D01*
X1267758Y912500D01*
X1267261Y911756D01*
X1266912Y910000D01*
X1267261Y908244D01*
X1267758Y907500D01*
X1267261Y906756D01*
X1266912Y905000D01*
X1267261Y903244D01*
X1267758Y902500D01*
X1267261Y901756D01*
X1266912Y900000D01*
X1267261Y898244D01*
X1267758Y897500D01*
X1267261Y896756D01*
X1266912Y895000D01*
X1267261Y893244D01*
X1267758Y892500D01*
X1267261Y891756D01*
X1266912Y890000D01*
X1267261Y888244D01*
X1268256Y886756D01*
X1269744Y885761D01*
X1271500Y885412D01*
X1282500D01*
X1284256Y885761D01*
X1285744Y886756D01*
X1286739Y888244D01*
X1287088Y890000D01*
X1286739Y891756D01*
X1286242Y892500D01*
X1286739Y893244D01*
X1287088Y895000D01*
X1286739Y896756D01*
X1286242Y897500D01*
X1286739Y898244D01*
X1287088Y900000D01*
X1286739Y901756D01*
X1286242Y902500D01*
X1286739Y903244D01*
X1287088Y905000D01*
X1287845Y905922D01*
X1300922D01*
Y882500D01*
X1300922Y882500D01*
X1301232Y880939D01*
X1302116Y879616D01*
X1319286Y862446D01*
X1319286Y862446D01*
X1320609Y861562D01*
X1322170Y861252D01*
X1322170Y861252D01*
X1370922D01*
Y853802D01*
X1370922Y853801D01*
X1371232Y852241D01*
X1372116Y850918D01*
X1373288Y849746D01*
X1373288Y849746D01*
X1374611Y848862D01*
X1376172Y848552D01*
X1376172Y848552D01*
X1376742D01*
X1377640Y847654D01*
X1377640Y846280D01*
X1377640Y845360D01*
Y844008D01*
X1331759D01*
X1328560Y847208D01*
X1328618Y847500D01*
X1328152Y849841D01*
X1326826Y851826D01*
X1324841Y853152D01*
X1322500Y853617D01*
X1320159Y853152D01*
X1318174Y851826D01*
X1316848Y849841D01*
X1316382Y847500D01*
X1316848Y845159D01*
X1318174Y843174D01*
X1320159Y841848D01*
X1322500Y841383D01*
X1322792Y841441D01*
X1327186Y837046D01*
X1327186Y837046D01*
X1328509Y836162D01*
X1330070Y835852D01*
X1332710D01*
Y833258D01*
X1321982D01*
X1321894Y833241D01*
X1320000Y833617D01*
X1317659Y833152D01*
X1315674Y831826D01*
X1314348Y829841D01*
X1313882Y827500D01*
X1314348Y825159D01*
X1315674Y823174D01*
X1317659Y821848D01*
X1320000Y821383D01*
X1322341Y821848D01*
X1324326Y823174D01*
X1324932Y824082D01*
X1332710D01*
Y821420D01*
X1333170D01*
Y815940D01*
X1339960D01*
X1346750D01*
Y821420D01*
X1347210D01*
Y823667D01*
X1353030D01*
Y820590D01*
X1353490D01*
Y815110D01*
X1360280D01*
Y813840D01*
D01*
Y815110D01*
X1367070D01*
Y820590D01*
X1367530D01*
Y822947D01*
X1377640D01*
Y821230D01*
X1377834D01*
X1378100Y820070D01*
X1378100Y819960D01*
Y815800D01*
X1403180D01*
Y819960D01*
X1403180Y820070D01*
X1403445Y821230D01*
X1403640D01*
Y833230D01*
X1403640D01*
Y833930D01*
X1403640D01*
Y845360D01*
X1403640Y846280D01*
X1403640Y847200D01*
Y858630D01*
X1403640D01*
Y859330D01*
X1403640D01*
Y871330D01*
X1403640D01*
Y872030D01*
X1403640D01*
Y884030D01*
X1403445D01*
X1403180Y885190D01*
X1403180D01*
Y889460D01*
X1390640D01*
Y892000D01*
X1403180D01*
Y896270D01*
X1403180D01*
X1403445Y897430D01*
X1403640D01*
Y909430D01*
X1403445D01*
X1403180Y910590D01*
X1403180Y910700D01*
Y914860D01*
X1378100D01*
Y910700D01*
X1378100Y910590D01*
X1377834Y909430D01*
X1377640D01*
Y907748D01*
X1368800D01*
Y910140D01*
X1354300D01*
Y907478D01*
X1349750D01*
Y910140D01*
X1347088D01*
Y917357D01*
X1371390Y941659D01*
X1372341Y941848D01*
X1374326Y943174D01*
X1375652Y945159D01*
X1375841Y946110D01*
X1378244Y948513D01*
X1379239Y950002D01*
X1379588Y951757D01*
Y1025743D01*
X1379239Y1027498D01*
X1378244Y1028987D01*
X1376487Y1030744D01*
X1374998Y1031739D01*
X1373243Y1032088D01*
X1001757D01*
X1000002Y1031739D01*
X998513Y1030744D01*
X996756Y1028987D01*
X995761Y1027498D01*
X995412Y1025743D01*
Y935590D01*
X989080D01*
Y933457D01*
X980804D01*
X980000Y933617D01*
X979196Y933457D01*
X958304D01*
X957500Y933617D01*
X956696Y933457D01*
X902540D01*
Y933590D01*
X898617Y937512D01*
Y1037500D01*
X898152Y1039841D01*
X896826Y1041826D01*
X886826Y1051826D01*
X884841Y1053152D01*
X882500Y1053617D01*
X712534D01*
X709898Y1056254D01*
Y1061360D01*
X711730D01*
Y1105260D01*
X695830D01*
Y1061360D01*
X697663D01*
Y1053720D01*
X698128Y1051379D01*
X699454Y1049394D01*
X703216Y1045633D01*
X702730Y1044459D01*
X689407D01*
X681199Y1052668D01*
Y1061820D01*
X685510D01*
Y1083310D01*
Y1104800D01*
X681199D01*
Y1111401D01*
X680966Y1112571D01*
X680303Y1113564D01*
X679311Y1114227D01*
X678140Y1114459D01*
X657343Y1114459D01*
X656967Y1114385D01*
X656584Y1114364D01*
X656387Y1114269D01*
X656172Y1114227D01*
X655854Y1114014D01*
X655508Y1113848D01*
X655362Y1113685D01*
X655180Y1113563D01*
X654967Y1113244D01*
X654711Y1112959D01*
X654638Y1112753D01*
X654517Y1112571D01*
X654442Y1112195D01*
X654315Y1111833D01*
X653376Y1105260D01*
X644830D01*
Y1094551D01*
X629227D01*
X620679Y1103099D01*
X618485Y1104782D01*
X615931Y1105840D01*
X613190Y1106201D01*
X613190Y1106201D01*
X549929D01*
X547520Y1108610D01*
X534520D01*
X534004Y1108094D01*
X465500D01*
Y1119500D01*
D02*
G37*
G36*
X1280430Y1002481D02*
X1278426Y1002217D01*
X1275376Y1000954D01*
X1272756Y998944D01*
X1270746Y996324D01*
X1269483Y993274D01*
X1269219Y991270D01*
X1280430D01*
Y1002481D01*
D02*
G37*
G36*
X1228790Y989290D02*
X1223270D01*
Y983770D01*
X1228790D01*
Y989290D01*
D02*
G37*
G36*
X1261332D02*
X1255813D01*
Y983770D01*
X1261332D01*
Y989290D01*
D02*
G37*
G36*
X1075580Y986930D02*
X1062310D01*
Y978660D01*
X1075580D01*
Y986930D01*
D02*
G37*
G36*
X1059770D02*
X1046500D01*
Y978660D01*
X1059770D01*
Y986930D01*
D02*
G37*
G36*
X1280430Y988730D02*
X1269219D01*
X1269483Y986726D01*
X1270746Y983676D01*
X1272756Y981056D01*
X1275376Y979046D01*
X1278426Y977783D01*
X1280430Y977519D01*
Y988730D01*
D02*
G37*
G36*
X1261332Y981230D02*
X1255813D01*
Y975710D01*
X1261332D01*
Y981230D01*
D02*
G37*
G36*
X1228790Y981230D02*
X1223270D01*
Y975710D01*
X1228790D01*
Y981230D01*
D02*
G37*
G36*
X1075580Y976120D02*
X1062310D01*
Y967850D01*
X1075580D01*
Y976120D01*
D02*
G37*
G36*
X1059770D02*
X1046500D01*
Y967850D01*
X1059770D01*
Y976120D01*
D02*
G37*
G36*
X689040Y974040D02*
X671270D01*
Y960770D01*
X689040D01*
Y974040D01*
D02*
G37*
G36*
X668730D02*
X650960D01*
Y960770D01*
X668730D01*
Y974040D01*
D02*
G37*
G36*
X1157230Y961790D02*
X1151710D01*
Y956270D01*
X1157230D01*
Y961790D01*
D02*
G37*
G36*
Y953730D02*
X1151710D01*
Y948210D01*
X1157230D01*
Y953730D01*
D02*
G37*
G36*
X1168985Y981117D02*
X1096015D01*
X1093674Y980652D01*
X1091689Y979326D01*
X1088174Y975811D01*
X1086848Y973826D01*
X1086382Y971485D01*
Y951508D01*
X1076040D01*
Y955390D01*
X1046040D01*
Y935390D01*
X1052382D01*
Y933003D01*
X1051882Y932668D01*
X1051065Y931445D01*
X1050778Y930003D01*
Y918298D01*
X1051065Y916855D01*
X1051882Y915632D01*
X1053105Y914815D01*
X1054548Y914528D01*
X1062452D01*
X1063895Y914815D01*
X1065118Y915632D01*
X1065935Y916855D01*
X1066222Y918298D01*
Y930003D01*
X1065935Y931445D01*
X1065118Y932668D01*
X1064617Y933003D01*
Y935390D01*
X1076040D01*
Y939273D01*
X1088985D01*
X1091326Y939738D01*
X1093311Y941064D01*
X1096826Y944579D01*
X1098152Y946564D01*
X1098617Y948905D01*
Y968883D01*
X1166383D01*
Y962250D01*
X1165250D01*
Y961790D01*
X1159770D01*
Y955000D01*
Y948210D01*
X1164145D01*
X1164413Y947848D01*
X1163773Y946578D01*
X1148672D01*
X1148672Y946578D01*
X1147111Y946268D01*
X1145788Y945384D01*
X1145788Y945384D01*
X1144616Y944212D01*
X1143732Y942889D01*
X1143422Y941328D01*
X1143422Y941328D01*
Y938500D01*
X1139000D01*
Y933578D01*
X1134750D01*
Y936250D01*
X1120250D01*
Y921750D01*
X1120710D01*
Y916270D01*
X1127500D01*
X1134290D01*
Y921750D01*
X1134750D01*
Y925422D01*
X1139000D01*
Y920500D01*
Y903500D01*
X1157922D01*
Y899750D01*
X1154750D01*
Y899290D01*
X1149270D01*
Y892500D01*
X1148000D01*
D01*
X1149270D01*
Y885710D01*
X1154750D01*
Y885250D01*
X1165323D01*
X1165809Y884077D01*
X1162811Y881078D01*
X1129750D01*
Y884250D01*
X1126578D01*
Y898828D01*
X1126578Y898828D01*
X1126268Y900389D01*
X1125384Y901712D01*
X1125384Y901712D01*
X1124212Y902884D01*
X1122889Y903768D01*
X1121328Y904078D01*
X1121328Y904078D01*
X1114189D01*
X1111788Y906480D01*
X1112084Y907750D01*
X1114750D01*
Y922250D01*
X1114290D01*
Y927730D01*
X1100710D01*
Y922250D01*
X1100250D01*
Y907750D01*
X1103422D01*
Y905000D01*
X1103422Y905000D01*
X1103732Y903439D01*
X1104616Y902116D01*
X1109616Y897116D01*
X1109616Y897116D01*
X1110939Y896232D01*
X1112500Y895922D01*
X1118422D01*
Y884250D01*
X1115250D01*
Y867338D01*
X1113559D01*
X1112341Y868152D01*
X1110000Y868617D01*
X1107659Y868152D01*
X1105674Y866826D01*
X1104348Y864841D01*
X1103883Y862500D01*
X1104348Y860159D01*
X1105674Y858174D01*
X1107659Y856848D01*
X1110000Y856383D01*
X1112341Y856848D01*
X1113980Y857943D01*
X1115250Y857461D01*
Y855750D01*
X1129750D01*
Y869750D01*
Y872922D01*
X1135250D01*
Y862250D01*
X1135710D01*
Y856770D01*
X1142500D01*
X1149290D01*
Y862250D01*
X1149750D01*
Y865422D01*
X1157750D01*
Y862250D01*
Y848250D01*
X1172250D01*
Y849961D01*
X1173520Y850443D01*
X1175159Y849348D01*
X1177500Y848883D01*
X1179841Y849348D01*
X1181826Y850674D01*
X1183152Y852659D01*
X1183617Y855000D01*
X1183152Y857341D01*
X1181826Y859326D01*
X1179841Y860652D01*
X1177500Y861117D01*
X1175159Y860652D01*
X1173941Y859838D01*
X1172250D01*
Y865471D01*
X1173561Y865732D01*
X1174884Y866616D01*
X1178750Y870482D01*
X1182116Y867116D01*
X1182116Y867116D01*
X1183439Y866232D01*
X1185000Y865922D01*
X1185922Y865126D01*
Y844189D01*
X1173311Y831578D01*
X1160000D01*
X1160000Y831578D01*
X1158439Y831268D01*
X1157116Y830384D01*
X1157116Y830384D01*
X1148574Y821841D01*
X1147690Y820518D01*
X1147379Y818957D01*
X1147379Y818957D01*
Y809766D01*
X1144207D01*
Y808388D01*
X1142937Y807862D01*
X1142916Y807884D01*
X1141593Y808768D01*
X1140032Y809078D01*
X1140032Y809078D01*
X1133415D01*
Y812500D01*
X1121415D01*
Y796500D01*
X1133415D01*
Y800922D01*
X1138343D01*
X1139632Y799632D01*
X1139632Y799632D01*
X1140955Y798748D01*
X1142516Y798438D01*
X1142516Y798438D01*
X1144207D01*
Y795266D01*
X1144667D01*
Y789786D01*
X1151457D01*
X1158247D01*
Y795266D01*
X1158707D01*
Y809766D01*
X1155536D01*
Y817268D01*
X1161689Y823422D01*
X1175000D01*
X1175000Y823422D01*
X1176561Y823732D01*
X1177884Y824616D01*
X1192884Y839616D01*
X1192884Y839616D01*
X1193768Y840939D01*
X1194078Y842500D01*
Y868828D01*
X1194078Y868828D01*
X1193768Y870389D01*
X1192884Y871712D01*
X1192884Y871712D01*
X1191712Y872884D01*
X1190389Y873768D01*
X1188828Y874078D01*
X1188828Y874078D01*
X1186689D01*
X1185578Y875189D01*
Y884499D01*
X1186848Y885542D01*
X1187500Y885412D01*
X1198500D01*
X1200256Y885761D01*
X1201744Y886756D01*
X1202739Y888244D01*
X1203088Y890000D01*
X1202739Y891756D01*
X1202242Y892500D01*
X1202739Y893244D01*
X1203088Y895000D01*
X1202739Y896756D01*
X1202242Y897500D01*
X1202739Y898244D01*
X1203088Y900000D01*
X1202739Y901756D01*
X1202242Y902500D01*
X1202739Y903244D01*
X1203088Y905000D01*
X1202739Y906756D01*
X1201965Y907914D01*
X1202306Y908424D01*
X1202366Y908730D01*
X1201018D01*
X1200256Y909239D01*
X1198500Y909589D01*
X1193000D01*
Y910411D01*
X1198500D01*
X1200256Y910761D01*
X1201018Y911270D01*
X1202366D01*
X1202306Y911576D01*
X1201965Y912086D01*
X1202739Y913244D01*
X1203088Y915000D01*
X1202739Y916756D01*
X1202242Y917500D01*
X1202739Y918244D01*
X1203088Y920000D01*
X1202739Y921756D01*
X1202242Y922500D01*
X1202739Y923244D01*
X1203088Y925000D01*
X1202739Y926756D01*
X1202242Y927500D01*
X1202739Y928244D01*
X1203088Y930000D01*
X1202739Y931756D01*
X1202242Y932500D01*
X1202739Y933244D01*
X1203088Y935000D01*
X1202739Y936756D01*
X1202242Y937500D01*
X1202739Y938244D01*
X1203088Y940000D01*
X1202739Y941756D01*
X1202242Y942500D01*
X1202739Y943244D01*
X1203088Y945000D01*
X1202739Y946756D01*
X1201744Y948244D01*
X1200256Y949239D01*
X1198500Y949588D01*
X1184588D01*
Y953243D01*
X1184239Y954998D01*
X1183244Y956487D01*
X1181487Y958244D01*
X1179998Y959239D01*
X1179750Y959288D01*
Y962250D01*
X1178617D01*
Y971485D01*
X1178152Y973826D01*
X1176826Y975811D01*
X1173311Y979326D01*
X1171326Y980652D01*
X1168985Y981117D01*
D02*
G37*
G36*
X689040Y958230D02*
X671270D01*
Y944960D01*
X689040D01*
Y958230D01*
D02*
G37*
G36*
X668730D02*
X650960D01*
Y944960D01*
X668730D01*
Y958230D01*
D02*
G37*
G36*
X1114290Y935790D02*
X1108770D01*
Y930270D01*
X1114290D01*
Y935790D01*
D02*
G37*
G36*
X1106230D02*
X1100710D01*
Y930270D01*
X1106230D01*
Y935790D01*
D02*
G37*
G36*
X1085352Y933303D02*
X1082670D01*
Y925420D01*
X1088653D01*
Y930003D01*
X1088402Y931266D01*
X1087687Y932337D01*
X1086616Y933052D01*
X1085352Y933303D01*
D02*
G37*
G36*
X1080130D02*
X1077448D01*
X1076184Y933052D01*
X1075113Y932337D01*
X1074398Y931266D01*
X1074146Y930003D01*
Y925420D01*
X1080130D01*
Y933303D01*
D02*
G37*
G36*
X1403180Y921670D02*
X1391910D01*
Y917400D01*
X1403180D01*
Y921670D01*
D02*
G37*
G36*
X1389370D02*
X1378100D01*
Y917400D01*
X1389370D01*
Y921670D01*
D02*
G37*
G36*
X1088653Y922880D02*
X1082670D01*
Y914997D01*
X1085352D01*
X1086616Y915248D01*
X1087687Y915963D01*
X1088402Y917034D01*
X1088653Y918298D01*
Y922880D01*
D02*
G37*
G36*
X1080130D02*
X1074146D01*
Y918298D01*
X1074398Y917034D01*
X1075113Y915963D01*
X1076184Y915248D01*
X1077448Y914997D01*
X1080130D01*
Y922880D01*
D02*
G37*
G36*
X1134290Y913730D02*
X1128770D01*
Y908210D01*
X1134290D01*
Y913730D01*
D02*
G37*
G36*
X1126230D02*
X1120710D01*
Y908210D01*
X1126230D01*
Y913730D01*
D02*
G37*
G36*
X1010620Y903130D02*
X1001350D01*
Y895860D01*
X1010620D01*
Y903130D01*
D02*
G37*
G36*
X998810D02*
X989540D01*
Y895860D01*
X998810D01*
Y903130D01*
D02*
G37*
G36*
X892810Y903554D02*
Y894360D01*
X902004D01*
X901809Y895842D01*
X900747Y898405D01*
X899057Y900607D01*
X896855Y902297D01*
X894292Y903359D01*
X892810Y903554D01*
D02*
G37*
G36*
X890270Y903554D02*
X888789Y903359D01*
X886225Y902297D01*
X884023Y900607D01*
X882333Y898405D01*
X881271Y895842D01*
X881076Y894360D01*
X890270D01*
Y903554D01*
D02*
G37*
G36*
X1146730Y899290D02*
X1141210D01*
Y893770D01*
X1146730D01*
Y899290D01*
D02*
G37*
G36*
X1010620Y893320D02*
X1001350D01*
Y886050D01*
X1010620D01*
Y893320D01*
D02*
G37*
G36*
X998810D02*
X989540D01*
Y886050D01*
X998810D01*
Y893320D01*
D02*
G37*
G36*
X1146730Y891230D02*
X1141210D01*
Y885710D01*
X1146730D01*
Y891230D01*
D02*
G37*
G36*
X1262500Y885588D02*
X1260744Y885239D01*
X1259586Y884465D01*
X1259076Y884806D01*
X1258770Y884866D01*
Y883518D01*
X1258261Y882756D01*
X1257911Y881000D01*
Y875500D01*
X1257089D01*
Y881000D01*
X1256739Y882756D01*
X1256230Y883518D01*
Y884866D01*
X1255924Y884806D01*
X1255414Y884465D01*
X1254256Y885239D01*
X1252500Y885588D01*
X1250744Y885239D01*
X1250000Y884742D01*
X1249256Y885239D01*
X1247500Y885588D01*
X1245744Y885239D01*
X1245000Y884742D01*
X1244256Y885239D01*
X1242500Y885588D01*
X1240744Y885239D01*
X1240000Y884742D01*
X1239256Y885239D01*
X1237500Y885588D01*
X1235744Y885239D01*
X1235000Y884742D01*
X1234256Y885239D01*
X1232500Y885588D01*
X1230744Y885239D01*
X1230000Y884742D01*
X1229256Y885239D01*
X1227500Y885588D01*
X1225744Y885239D01*
X1225000Y884742D01*
X1224256Y885239D01*
X1222500Y885588D01*
X1220744Y885239D01*
X1220000Y884742D01*
X1219256Y885239D01*
X1217500Y885588D01*
X1215744Y885239D01*
X1215000Y884742D01*
X1214256Y885239D01*
X1212500Y885588D01*
X1210744Y885239D01*
X1210000Y884742D01*
X1209256Y885239D01*
X1207500Y885588D01*
X1205744Y885239D01*
X1204256Y884244D01*
X1203261Y882756D01*
X1202912Y881000D01*
Y870000D01*
X1203261Y868244D01*
X1203422Y868004D01*
Y854189D01*
X1201616Y852384D01*
X1200732Y851061D01*
X1200422Y849500D01*
X1200422Y849500D01*
Y812500D01*
X1198500D01*
Y796500D01*
X1210500D01*
Y798438D01*
X1220250D01*
Y795266D01*
X1220710D01*
Y789786D01*
X1227500D01*
X1234290D01*
Y795266D01*
X1234750D01*
Y809766D01*
X1220250D01*
Y806594D01*
X1210500D01*
Y812500D01*
X1208578D01*
Y847811D01*
X1210384Y849616D01*
X1210384Y849616D01*
X1211268Y850939D01*
X1211578Y852500D01*
Y864656D01*
X1212500Y865412D01*
X1214256Y865761D01*
X1215000Y866258D01*
X1215744Y865761D01*
X1217500Y865412D01*
X1219256Y865761D01*
X1220000Y866258D01*
X1220744Y865761D01*
X1222500Y865412D01*
X1224256Y865761D01*
X1225000Y866258D01*
X1225744Y865761D01*
X1227500Y865412D01*
X1229256Y865761D01*
X1230000Y866258D01*
X1230744Y865761D01*
X1232189Y865474D01*
X1232626Y864590D01*
X1232689Y864178D01*
X1231756Y863244D01*
X1230761Y861756D01*
X1230412Y860000D01*
Y854250D01*
X1227750D01*
Y839750D01*
X1228210D01*
Y834270D01*
X1241790D01*
Y839750D01*
X1242250D01*
Y854250D01*
X1239588D01*
Y858100D01*
X1245744Y864256D01*
X1246632Y865584D01*
X1247500Y865412D01*
X1249256Y865761D01*
X1250000Y866258D01*
X1250744Y865761D01*
X1252500Y865412D01*
X1254256Y865761D01*
X1255414Y866535D01*
X1255924Y866195D01*
X1257500Y865881D01*
X1257912Y865543D01*
Y859237D01*
X1258261Y857482D01*
X1259256Y855993D01*
X1259689Y855560D01*
X1259163Y854290D01*
X1254812D01*
Y847500D01*
Y840710D01*
X1260293D01*
Y840250D01*
X1262933D01*
Y836465D01*
X1261848Y834841D01*
X1261383Y832500D01*
X1261848Y830159D01*
X1263174Y828174D01*
X1265159Y826848D01*
X1267500Y826383D01*
X1269841Y826848D01*
X1271826Y828174D01*
X1273152Y830159D01*
X1273617Y832500D01*
X1273152Y834841D01*
X1272109Y836401D01*
Y840250D01*
X1274792D01*
Y854750D01*
X1271782D01*
X1271484Y856248D01*
X1270489Y857737D01*
X1267088Y861138D01*
Y870000D01*
X1267088Y870000D01*
Y881000D01*
X1266739Y882756D01*
X1265744Y884244D01*
X1264256Y885239D01*
X1262500Y885588D01*
D02*
G37*
G36*
X890270Y891820D02*
X881076D01*
X881271Y890339D01*
X882333Y887775D01*
X884023Y885573D01*
X886225Y883883D01*
X888789Y882821D01*
X890270Y882626D01*
Y891820D01*
D02*
G37*
G36*
X902004D02*
X892810D01*
Y882626D01*
X894292Y882821D01*
X896855Y883883D01*
X899057Y885573D01*
X900747Y887775D01*
X901809Y890339D01*
X902004Y891820D01*
D02*
G37*
G36*
X1252272Y854290D02*
X1246752D01*
Y848770D01*
X1252272D01*
Y854290D01*
D02*
G37*
G36*
X1149290Y854230D02*
X1143770D01*
Y848710D01*
X1149290D01*
Y854230D01*
D02*
G37*
G36*
X1141230D02*
X1135710D01*
Y848710D01*
X1141230D01*
Y854230D01*
D02*
G37*
G36*
X1073717Y866878D02*
X1043282D01*
X1041729Y866569D01*
X1040411Y865689D01*
X1039531Y864371D01*
X1039222Y862818D01*
Y851683D01*
X1039531Y850129D01*
X1040411Y848811D01*
X1041729Y847931D01*
X1043282Y847622D01*
X1073717D01*
X1075271Y847931D01*
X1076589Y848811D01*
X1077469Y850129D01*
X1077778Y851683D01*
Y862818D01*
X1077469Y864371D01*
X1076589Y865689D01*
X1075271Y866569D01*
X1073717Y866878D01*
D02*
G37*
G36*
X1252272Y846230D02*
X1246752D01*
Y840710D01*
X1252272D01*
Y846230D01*
D02*
G37*
G36*
X1241790Y831730D02*
X1236270D01*
Y826210D01*
X1241790D01*
Y831730D01*
D02*
G37*
G36*
X1233730D02*
X1228210D01*
Y826210D01*
X1233730D01*
Y831730D01*
D02*
G37*
G36*
X1403180Y813260D02*
X1391910D01*
Y808990D01*
X1403180D01*
Y813260D01*
D02*
G37*
G36*
X1389370D02*
X1378100D01*
Y808990D01*
X1389370D01*
Y813260D01*
D02*
G37*
G36*
X1346750Y813400D02*
X1341230D01*
Y807880D01*
X1346750D01*
Y813400D01*
D02*
G37*
G36*
X1338690D02*
X1333170D01*
Y807880D01*
X1338690D01*
Y813400D01*
D02*
G37*
G36*
X1367070Y812570D02*
X1361550D01*
Y807050D01*
X1367070D01*
Y812570D01*
D02*
G37*
G36*
X1359010D02*
X1353490D01*
Y807050D01*
X1359010D01*
Y812570D01*
D02*
G37*
G36*
X1403180Y807370D02*
X1391910D01*
Y803100D01*
X1403180D01*
Y807370D01*
D02*
G37*
G36*
X1389370D02*
X1378100D01*
Y803100D01*
X1389370D01*
Y807370D01*
D02*
G37*
G36*
X1191500Y812500D02*
X1179500D01*
Y809088D01*
X1171757D01*
X1170002Y808739D01*
X1168513Y807744D01*
X1166756Y805987D01*
X1165761Y804498D01*
X1165412Y802743D01*
Y765000D01*
X1165761Y763244D01*
X1166756Y761756D01*
X1179256Y749256D01*
X1180744Y748261D01*
X1182500Y747912D01*
X1210600D01*
X1212912Y745600D01*
Y743100D01*
X1209950D01*
Y724900D01*
X1225050D01*
Y729412D01*
X1254100D01*
X1255412Y728100D01*
Y709588D01*
X1250500D01*
Y712000D01*
X1224500D01*
Y699000D01*
X1250500D01*
Y700412D01*
X1258243D01*
X1259998Y700761D01*
X1261487Y701756D01*
X1263244Y703513D01*
X1264239Y705002D01*
X1264588Y706757D01*
Y730000D01*
X1264239Y731756D01*
X1263244Y733244D01*
X1259244Y737244D01*
X1257756Y738239D01*
X1256000Y738588D01*
X1225050D01*
Y743100D01*
X1222088D01*
Y747500D01*
X1221739Y749256D01*
X1220744Y750744D01*
X1215744Y755744D01*
X1214256Y756739D01*
X1212500Y757088D01*
X1184400D01*
X1174588Y766900D01*
Y799912D01*
X1179500D01*
Y796500D01*
X1191500D01*
Y812500D01*
D02*
G37*
G36*
X1075050Y828100D02*
X1059950D01*
Y809900D01*
X1062927D01*
X1063261Y808219D01*
X1064256Y806730D01*
X1072105Y798881D01*
X1071619Y797708D01*
X1067000D01*
Y784707D01*
X1093000D01*
Y786619D01*
X1093243D01*
X1094998Y786969D01*
X1096487Y787963D01*
X1098244Y789721D01*
X1099239Y791209D01*
X1099588Y792965D01*
Y798100D01*
X1101145Y799656D01*
X1102415Y799295D01*
Y796500D01*
X1114415D01*
Y812500D01*
X1102415D01*
Y809088D01*
X1099500D01*
X1097744Y808739D01*
X1096256Y807744D01*
X1091756Y803244D01*
X1090761Y801756D01*
X1090412Y800000D01*
Y797708D01*
X1084542D01*
X1084239Y799231D01*
X1083244Y800719D01*
X1074761Y809202D01*
X1075050Y809900D01*
X1075050D01*
Y828100D01*
D02*
G37*
G36*
X1403180Y800560D02*
X1391910D01*
Y796290D01*
X1403180D01*
Y800560D01*
D02*
G37*
G36*
X1389370D02*
X1378100D01*
Y796290D01*
X1389370D01*
Y800560D01*
D02*
G37*
G36*
X1042300Y828100D02*
X1027200D01*
Y809900D01*
X1027973D01*
X1028459Y808727D01*
X1020427Y800694D01*
X1019432Y799206D01*
X1019134Y797708D01*
X1007000D01*
Y795796D01*
X994519D01*
X994319Y795756D01*
X992500Y796117D01*
X990159Y795652D01*
X988174Y794326D01*
X986848Y792341D01*
X986382Y790000D01*
X986848Y787659D01*
X988174Y785674D01*
X990159Y784348D01*
X992500Y783883D01*
X994841Y784348D01*
X996826Y785674D01*
X997457Y786619D01*
X1007000D01*
Y784707D01*
X1033000D01*
Y797708D01*
X1032077D01*
X1031591Y798881D01*
X1037994Y805285D01*
X1038989Y806773D01*
X1039338Y808529D01*
Y809900D01*
X1042300D01*
Y828100D01*
D02*
G37*
G36*
X1158247Y787246D02*
X1152727D01*
Y781726D01*
X1158247D01*
Y787246D01*
D02*
G37*
G36*
X1150187D02*
X1144667D01*
Y781726D01*
X1150187D01*
Y787246D01*
D02*
G37*
G36*
X1200540Y788040D02*
X1196270D01*
Y780500D01*
X1193730D01*
Y788040D01*
X1189460D01*
Y783008D01*
X1189348Y782841D01*
X1188882Y780500D01*
Y765000D01*
X1189348Y762659D01*
X1190674Y760674D01*
Y760674D01*
X1192659Y759348D01*
X1195000Y758883D01*
X1197341Y759348D01*
X1199326Y760674D01*
X1200652Y762659D01*
X1201117Y765000D01*
Y780500D01*
X1200652Y782841D01*
X1200540Y783008D01*
Y788040D01*
D02*
G37*
G36*
X1123455D02*
X1119185D01*
Y780500D01*
X1116645D01*
Y788040D01*
X1112375D01*
Y783214D01*
X1111848Y782426D01*
X1111383Y780085D01*
Y765000D01*
X1111848Y762659D01*
X1113174Y760674D01*
X1115159Y759348D01*
X1117500Y758883D01*
X1119841Y759348D01*
X1121826Y760674D01*
X1123152Y762659D01*
X1123617Y765000D01*
Y778414D01*
X1124032Y780500D01*
X1123567Y782841D01*
X1123455Y783008D01*
Y788040D01*
D02*
G37*
G36*
X1234290Y787246D02*
X1227500D01*
X1220710D01*
Y781726D01*
X1221382D01*
Y772500D01*
X1221848Y770159D01*
X1223174Y768174D01*
X1225159Y766848D01*
X1227500Y766383D01*
X1229841Y766848D01*
X1231826Y768174D01*
X1233152Y770159D01*
X1233617Y772500D01*
Y781726D01*
X1234290D01*
Y787246D01*
D02*
G37*
G36*
X1093000Y765707D02*
X1067000D01*
Y752708D01*
X1093000D01*
Y765707D01*
D02*
G37*
G36*
X321500Y953000D02*
X308500D01*
X302000Y946500D01*
Y933500D01*
X308500Y927000D01*
X321500D01*
X323931Y929431D01*
X624158D01*
X800087Y753502D01*
X801758Y752219D01*
X803704Y751413D01*
X805793Y751139D01*
X1020000D01*
X1022088Y751413D01*
X1024035Y752219D01*
X1024670Y752708D01*
X1033000D01*
Y765707D01*
X1024670D01*
X1024035Y766195D01*
X1022088Y767001D01*
X1020000Y767277D01*
X809135D01*
X633206Y943206D01*
X631535Y944488D01*
X629589Y945294D01*
X627500Y945569D01*
X328000D01*
Y946500D01*
X321500Y953000D01*
D02*
G37*
G36*
X1093000Y743708D02*
X1067000D01*
Y730707D01*
X1093000D01*
Y743708D01*
D02*
G37*
G36*
X315000Y903112D02*
X311606Y902665D01*
X308444Y901356D01*
X305728Y899272D01*
X303645Y896556D01*
X302335Y893394D01*
X301888Y890000D01*
X302335Y886606D01*
X303645Y883444D01*
X305728Y880728D01*
X308444Y878644D01*
X311606Y877335D01*
X315000Y876888D01*
X318394Y877335D01*
X321556Y878644D01*
X322581Y879431D01*
X621658D01*
X769587Y731502D01*
X771258Y730219D01*
X773204Y729413D01*
X775293Y729138D01*
X1020000D01*
X1022088Y729413D01*
X1024035Y730219D01*
X1024670Y730707D01*
X1033000D01*
Y743708D01*
X1024670D01*
X1024035Y744195D01*
X1022088Y745002D01*
X1020000Y745276D01*
X778635D01*
X630706Y893206D01*
X629035Y894488D01*
X627088Y895294D01*
X625000Y895569D01*
X326764D01*
X326356Y896556D01*
X324272Y899272D01*
X321556Y901356D01*
X318394Y902665D01*
X315000Y903112D01*
D02*
G37*
G36*
X1192300Y743100D02*
X1177200D01*
Y724900D01*
X1177200D01*
X1177555Y724043D01*
X1174256Y720744D01*
X1173261Y719256D01*
X1172912Y717500D01*
Y712000D01*
X1164500D01*
Y709838D01*
X1148559D01*
X1147341Y710652D01*
X1145000Y711118D01*
X1142659Y710652D01*
X1140674Y709326D01*
X1139348Y707341D01*
X1138882Y705000D01*
X1139348Y702659D01*
X1140674Y700674D01*
X1142659Y699348D01*
X1145000Y698883D01*
X1147341Y699348D01*
X1149307Y700662D01*
X1164500D01*
Y699000D01*
X1190500D01*
Y712000D01*
X1182088D01*
Y715600D01*
X1187994Y721506D01*
X1188989Y722994D01*
X1189338Y724750D01*
Y724900D01*
X1192300D01*
Y743100D01*
D02*
G37*
G36*
X1093000Y721708D02*
X1067000D01*
Y708708D01*
X1093000D01*
Y721708D01*
D02*
G37*
G36*
X315000Y853112D02*
X311606Y852665D01*
X308444Y851356D01*
X305728Y849272D01*
X303645Y846556D01*
X302335Y843394D01*
X301888Y840000D01*
X302335Y836606D01*
X303645Y833444D01*
X305728Y830728D01*
X308444Y828644D01*
X311606Y827335D01*
X315000Y826888D01*
X318394Y827335D01*
X321556Y828644D01*
X322581Y829431D01*
X634158D01*
X754087Y709502D01*
X755758Y708220D01*
X757704Y707413D01*
X759792Y707139D01*
X1020000D01*
X1022088Y707413D01*
X1024035Y708220D01*
X1024670Y708708D01*
X1033000D01*
Y721708D01*
X1024670D01*
X1024035Y722196D01*
X1022088Y723002D01*
X1020000Y723277D01*
X763135D01*
X643206Y843206D01*
X641535Y844488D01*
X639588Y845294D01*
X637500Y845569D01*
X326764D01*
X326356Y846556D01*
X324272Y849272D01*
X321556Y851356D01*
X318394Y852665D01*
X315000Y853112D01*
D02*
G37*
G36*
X1250500Y680000D02*
X1224500D01*
Y667000D01*
X1250500D01*
Y680000D01*
D02*
G37*
G36*
X321500Y755500D02*
X308500D01*
X302000Y749000D01*
Y736000D01*
X308500Y729500D01*
X321500D01*
X325426Y733426D01*
X325965Y733012D01*
X327912Y732206D01*
X330000Y731931D01*
X416658D01*
X480294Y668294D01*
X481965Y667012D01*
X483912Y666206D01*
X486000Y665931D01*
X1174868D01*
X1175412Y665706D01*
X1177500Y665431D01*
X1179588Y665706D01*
X1181535Y666512D01*
X1182170Y667000D01*
X1190500D01*
Y680000D01*
X1182322D01*
X1181034Y680988D01*
X1179088Y681794D01*
X1177000Y682069D01*
X489342D01*
X425706Y745706D01*
X424035Y746988D01*
X422088Y747794D01*
X420000Y748069D01*
X330000D01*
X328955Y747931D01*
X328000Y748769D01*
Y749000D01*
X321500Y755500D01*
D02*
G37*
G36*
X1250500Y658000D02*
X1224500D01*
Y645000D01*
X1250500D01*
Y658000D01*
D02*
G37*
G36*
X315000Y705612D02*
X311606Y705165D01*
X308444Y703856D01*
X305728Y701772D01*
X303645Y699056D01*
X302335Y695894D01*
X301888Y692500D01*
X302335Y689106D01*
X303645Y685944D01*
X305728Y683228D01*
X308444Y681144D01*
X311606Y679835D01*
X315000Y679388D01*
X318394Y679835D01*
X321556Y681144D01*
X324272Y683228D01*
X325195Y684431D01*
X421658D01*
X459294Y646794D01*
X460965Y645512D01*
X462912Y644706D01*
X465000Y644431D01*
X1173661D01*
X1175412Y643706D01*
X1177500Y643431D01*
X1179588Y643706D01*
X1181535Y644512D01*
X1182170Y645000D01*
X1190500D01*
Y658000D01*
X1182411D01*
X1182206Y658206D01*
X1180535Y659488D01*
X1178588Y660294D01*
X1176500Y660569D01*
X468342D01*
X430706Y698206D01*
X429035Y699488D01*
X427089Y700294D01*
X425000Y700569D01*
X325195D01*
X324272Y701772D01*
X321556Y703856D01*
X318394Y705165D01*
X315000Y705612D01*
D02*
G37*
G36*
X1250500Y636000D02*
X1224500D01*
Y623000D01*
X1250500D01*
Y636000D01*
D02*
G37*
G36*
X315000Y655612D02*
X311606Y655165D01*
X308444Y653856D01*
X305728Y651772D01*
X303645Y649056D01*
X302335Y645894D01*
X301888Y642500D01*
X302335Y639106D01*
X303645Y635944D01*
X305728Y633228D01*
X308444Y631144D01*
X311606Y629835D01*
X315000Y629388D01*
X318394Y629835D01*
X321556Y631144D01*
X324272Y633228D01*
X325195Y634431D01*
X436658D01*
X447294Y623794D01*
X448965Y622512D01*
X450912Y621706D01*
X453000Y621431D01*
X1177500D01*
X1179588Y621706D01*
X1181535Y622512D01*
X1182170Y623000D01*
X1190500D01*
Y636000D01*
X1182170D01*
X1181535Y636488D01*
X1179588Y637294D01*
X1177500Y637569D01*
X456342D01*
X445706Y648206D01*
X444035Y649488D01*
X442088Y650294D01*
X440000Y650569D01*
X325195D01*
X324272Y651772D01*
X321556Y653856D01*
X318394Y655165D01*
X315000Y655612D01*
D02*
G37*
%LPD*%
G36*
X1344900Y982809D02*
Y977000D01*
X1370412D01*
Y954830D01*
X1370000Y953617D01*
X1367659Y953152D01*
X1365674Y951826D01*
X1364348Y949841D01*
X1363882Y947500D01*
X1363944Y947190D01*
X1339256Y922502D01*
X1338261Y921013D01*
X1337912Y919257D01*
Y910140D01*
X1335250D01*
Y909448D01*
X1333980Y909323D01*
X1333768Y910389D01*
X1332884Y911712D01*
X1332884Y911712D01*
X1327848Y916748D01*
X1328334Y917922D01*
X1331328D01*
X1331328Y917922D01*
X1332889Y918232D01*
X1334212Y919116D01*
X1335384Y920288D01*
X1335384Y920288D01*
X1336268Y921611D01*
X1336578Y923172D01*
X1336578Y923172D01*
Y977618D01*
X1339056Y978644D01*
X1341772Y980728D01*
X1343630Y983150D01*
X1344900Y982809D01*
D02*
G37*
G36*
X1313940Y907792D02*
X1313882Y907500D01*
X1314348Y905159D01*
X1315674Y903174D01*
X1317659Y901848D01*
X1320000Y901382D01*
X1322341Y901848D01*
X1324326Y903174D01*
X1324652Y903662D01*
X1325922Y903277D01*
Y882500D01*
X1325922Y882500D01*
X1326232Y880939D01*
X1327116Y879616D01*
X1331586Y875146D01*
X1331586Y875146D01*
X1332909Y874262D01*
X1334470Y873952D01*
X1377640D01*
Y872030D01*
X1377640D01*
Y871330D01*
X1377640D01*
Y869408D01*
X1323859D01*
X1309078Y884189D01*
Y908828D01*
X1309078Y908828D01*
X1309056Y908940D01*
X1309862Y909922D01*
X1311811D01*
X1313940Y907792D01*
D02*
G37*
%LPC*%
G36*
X1544410Y928659D02*
X1510020D01*
X1507932Y928384D01*
X1505985Y927578D01*
X1505727Y927380D01*
X1503230D01*
Y926199D01*
X1485640D01*
X1483552Y925924D01*
X1481606Y925118D01*
X1479934Y923836D01*
X1477934Y921836D01*
X1477807Y921670D01*
X1471100D01*
Y917400D01*
X1483640D01*
Y914860D01*
X1471100D01*
Y910590D01*
X1471100D01*
X1470834Y909430D01*
X1470640D01*
Y898000D01*
X1470640Y897080D01*
X1470640Y896160D01*
Y885300D01*
X1470640Y884380D01*
X1470640Y883460D01*
Y872030D01*
X1470834D01*
X1471100Y870870D01*
X1471100Y870760D01*
Y866600D01*
X1483640D01*
Y864060D01*
X1471100D01*
Y859900D01*
X1471100Y859790D01*
X1470834Y858630D01*
X1470640D01*
Y846630D01*
X1470834D01*
X1471100Y845470D01*
X1471100Y845360D01*
Y841200D01*
X1496180D01*
Y845360D01*
X1496180Y845470D01*
X1496445Y846630D01*
X1496640D01*
Y848904D01*
X1504383D01*
X1505759Y849178D01*
X1506926Y849958D01*
X1508027Y851059D01*
X1509242Y850690D01*
X1509348Y850159D01*
X1510674Y848174D01*
X1511405Y847686D01*
Y833989D01*
X1508241Y830826D01*
X1496640D01*
Y833230D01*
X1496445D01*
X1496180Y834390D01*
X1496180Y834500D01*
Y838660D01*
X1471100D01*
Y834500D01*
X1471100Y834390D01*
X1470834Y833230D01*
X1470640D01*
Y821230D01*
X1470640D01*
Y820530D01*
X1470640D01*
Y808530D01*
X1470834D01*
X1471100Y807370D01*
X1471100Y807260D01*
Y803100D01*
X1496180D01*
Y807260D01*
X1496180Y807370D01*
X1496445Y808530D01*
X1496640D01*
Y809942D01*
X1498243D01*
X1499998Y810291D01*
X1501487Y811286D01*
X1501973Y811772D01*
X1503230Y811233D01*
Y806260D01*
X1510020D01*
X1516810D01*
Y811740D01*
X1517270D01*
Y814402D01*
X1520078D01*
X1520159Y814348D01*
X1522500Y813883D01*
X1523449Y814071D01*
X1524431Y813266D01*
Y790133D01*
X1520367Y786069D01*
X1503117D01*
X1501741Y785795D01*
X1500574Y785016D01*
X1499958Y784399D01*
X1499178Y783233D01*
X1498905Y781857D01*
Y750617D01*
X1499178Y749241D01*
X1499958Y748074D01*
X1503274Y744758D01*
X1504441Y743978D01*
X1505817Y743705D01*
X1524918D01*
X1526145Y740744D01*
X1528228Y738028D01*
X1530944Y735945D01*
X1534106Y734635D01*
X1537500Y734188D01*
X1540894Y734635D01*
X1544056Y735945D01*
X1546772Y738028D01*
X1548855Y740744D01*
X1550082Y743705D01*
X1606130D01*
Y731960D01*
X1645130D01*
Y761960D01*
X1646158Y762543D01*
X1667141D01*
X1668517Y762817D01*
X1669683Y763596D01*
X1674110Y768023D01*
X1710934D01*
Y760780D01*
X1708030D01*
X1701530Y754280D01*
Y741280D01*
X1708030Y734780D01*
X1721030D01*
X1727530Y741280D01*
Y754280D01*
X1721030Y760780D01*
X1718125D01*
Y771002D01*
X1717852Y772378D01*
X1717583Y772780D01*
X1717852Y773182D01*
X1718125Y774558D01*
Y785198D01*
X1721086Y786424D01*
X1723802Y788508D01*
X1725885Y791224D01*
X1727195Y794386D01*
X1727642Y797780D01*
X1727195Y801174D01*
X1725885Y804336D01*
X1723802Y807052D01*
X1721086Y809136D01*
X1717924Y810445D01*
X1714530Y810892D01*
X1711136Y810445D01*
X1707974Y809136D01*
X1705258Y807052D01*
X1703174Y804336D01*
X1701865Y801174D01*
X1701418Y797780D01*
X1701865Y794386D01*
X1703174Y791224D01*
X1705258Y788508D01*
X1707974Y786424D01*
X1710934Y785198D01*
Y777537D01*
X1671658D01*
X1670283Y777263D01*
X1669116Y776484D01*
X1664689Y772057D01*
X1647214D01*
X1646185Y772640D01*
Y802640D01*
X1607185D01*
Y790595D01*
X1579750D01*
Y794250D01*
X1576095D01*
Y858781D01*
X1575822Y860157D01*
X1575042Y861323D01*
X1568959Y867406D01*
X1567793Y868186D01*
X1566417Y868460D01*
X1511122D01*
Y875707D01*
X1510848Y877083D01*
X1510069Y878249D01*
X1506926Y881393D01*
X1505759Y882172D01*
X1504383Y882446D01*
X1497538D01*
X1496640Y883344D01*
X1496640Y884380D01*
X1496640Y885300D01*
Y887134D01*
X1509699D01*
X1510674Y885674D01*
X1512659Y884348D01*
X1515000Y883883D01*
X1517341Y884348D01*
X1519326Y885674D01*
X1520652Y887659D01*
X1521118Y890000D01*
X1520652Y892341D01*
X1519326Y894326D01*
X1517341Y895652D01*
X1515000Y896117D01*
X1512659Y895652D01*
X1510674Y894326D01*
X1510674Y894325D01*
X1497538D01*
X1496640Y895223D01*
Y897572D01*
X1497561Y898842D01*
X1498430D01*
X1500186Y899191D01*
X1501500Y900069D01*
X1502770Y899714D01*
Y899340D01*
X1517270D01*
Y902002D01*
X1521820D01*
Y899340D01*
X1525412D01*
Y886433D01*
X1524348Y884841D01*
X1523882Y882500D01*
X1524348Y880159D01*
X1525674Y878174D01*
X1527659Y876848D01*
X1530000Y876382D01*
X1532341Y876848D01*
X1534326Y878174D01*
X1535652Y880159D01*
X1536118Y882500D01*
X1535652Y884841D01*
X1534588Y886433D01*
Y899340D01*
X1536320D01*
Y912521D01*
X1542151D01*
X1542912Y912206D01*
X1545000Y911931D01*
X1547088Y912206D01*
X1549034Y913012D01*
X1550706Y914294D01*
X1551988Y915965D01*
X1552794Y917912D01*
X1553069Y920000D01*
X1552794Y922088D01*
X1551988Y924035D01*
X1550706Y925706D01*
X1550116Y926296D01*
X1548445Y927578D01*
X1546498Y928384D01*
X1544410Y928659D01*
D02*
G37*
G36*
X1626685Y892276D02*
X1623944Y891915D01*
X1621390Y890857D01*
X1619196Y889174D01*
X1617513Y886980D01*
X1616455Y884426D01*
X1616095Y881685D01*
Y868180D01*
X1607645D01*
Y854910D01*
X1626685D01*
X1645725D01*
Y868180D01*
X1637276D01*
Y881685D01*
X1636915Y884426D01*
X1635857Y886980D01*
X1634174Y889174D01*
X1631980Y890857D01*
X1629426Y891915D01*
X1626685Y892276D01*
D02*
G37*
G36*
X1715800Y860261D02*
Y849050D01*
X1727011D01*
X1726747Y851054D01*
X1725484Y854104D01*
X1723474Y856724D01*
X1720854Y858734D01*
X1717803Y859997D01*
X1715800Y860261D01*
D02*
G37*
G36*
X1713260Y860261D02*
X1711256Y859997D01*
X1708206Y858734D01*
X1705586Y856724D01*
X1703576Y854104D01*
X1702313Y851054D01*
X1702049Y849050D01*
X1713260D01*
Y860261D01*
D02*
G37*
G36*
X1645725Y852370D02*
X1627955D01*
Y839100D01*
X1645725D01*
Y852370D01*
D02*
G37*
G36*
X1625415D02*
X1607645D01*
Y839100D01*
X1625415D01*
Y852370D01*
D02*
G37*
G36*
X1713260Y846510D02*
X1702049D01*
X1702313Y844506D01*
X1703576Y841456D01*
X1705586Y838836D01*
X1708206Y836826D01*
X1711256Y835563D01*
X1713260Y835299D01*
Y846510D01*
D02*
G37*
G36*
X1727011D02*
X1715800D01*
Y835299D01*
X1717803Y835563D01*
X1720854Y836826D01*
X1723474Y838836D01*
X1725484Y841456D01*
X1726747Y844506D01*
X1727011Y846510D01*
D02*
G37*
G36*
X1516810Y803720D02*
X1511290D01*
Y798200D01*
X1516810D01*
Y803720D01*
D02*
G37*
G36*
X1508750D02*
X1503230D01*
Y798200D01*
X1508750D01*
Y803720D01*
D02*
G37*
G36*
X1496180Y800560D02*
X1484910D01*
Y796290D01*
X1496180D01*
Y800560D01*
D02*
G37*
G36*
X1482370D02*
X1471100D01*
Y796290D01*
X1482370D01*
Y800560D01*
D02*
G37*
G36*
X1644670Y695500D02*
X1626900D01*
Y682230D01*
X1644670D01*
Y695500D01*
D02*
G37*
G36*
X1624360D02*
X1606590D01*
Y682230D01*
X1624360D01*
Y695500D01*
D02*
G37*
G36*
X1644670Y679690D02*
X1625630D01*
X1606590D01*
Y666420D01*
X1615039D01*
Y648391D01*
X1614770Y647741D01*
X1614409Y645000D01*
X1614770Y642259D01*
X1615828Y639705D01*
X1617511Y637511D01*
X1619705Y635828D01*
X1622259Y634770D01*
X1625000Y634409D01*
X1627741Y634770D01*
X1630295Y635828D01*
X1632489Y637511D01*
X1633119Y638141D01*
X1634802Y640335D01*
X1635860Y642889D01*
X1636221Y645630D01*
X1636221Y645630D01*
Y666420D01*
X1644670D01*
Y679690D01*
D02*
G37*
%LPD*%
G36*
X1568905Y857292D02*
Y794250D01*
X1565250D01*
Y777078D01*
X1550500D01*
Y785700D01*
X1531828D01*
X1531150Y786970D01*
X1531348Y787267D01*
X1531622Y788643D01*
Y822289D01*
X1531348Y823665D01*
X1530569Y824831D01*
X1525628Y829772D01*
X1524462Y830552D01*
X1523086Y830826D01*
X1519534D01*
X1518515Y832095D01*
X1518595Y832500D01*
Y847686D01*
X1519326Y848174D01*
X1520652Y850159D01*
X1521118Y852500D01*
X1520652Y854841D01*
X1519326Y856826D01*
X1517341Y858152D01*
X1515000Y858617D01*
X1512659Y858152D01*
X1512242Y857873D01*
X1511122Y858472D01*
Y861269D01*
X1564928D01*
X1568905Y857292D01*
D02*
G37*
G36*
X1607185Y772640D02*
X1622034D01*
Y769078D01*
X1622308Y767702D01*
X1622577Y767300D01*
X1622308Y766898D01*
X1622034Y765522D01*
Y761960D01*
X1606130D01*
Y750895D01*
X1550082D01*
X1548855Y753856D01*
X1546772Y756572D01*
X1544350Y758430D01*
X1544691Y759700D01*
X1550500D01*
Y768922D01*
X1565250D01*
Y765750D01*
X1579750D01*
Y779750D01*
Y783404D01*
X1607185D01*
Y772640D01*
D02*
G37*
G36*
X1524500Y778471D02*
Y759700D01*
X1530309D01*
X1530650Y758430D01*
X1528228Y756572D01*
X1526145Y753856D01*
X1524918Y750895D01*
X1507306D01*
X1506095Y752106D01*
Y778878D01*
X1521857D01*
X1523233Y779152D01*
X1524500Y778471D01*
D02*
G37*
D10*
X1227500Y802516D02*
D03*
Y788516D02*
D03*
X1151457D02*
D03*
Y802516D02*
D03*
X1235000Y847000D02*
D03*
Y833000D02*
D03*
X1300000Y930500D02*
D03*
Y944500D02*
D03*
X1165000Y855500D02*
D03*
Y869500D02*
D03*
X1122500Y877000D02*
D03*
Y863000D02*
D03*
X1142500Y855500D02*
D03*
Y869500D02*
D03*
X624840Y1083960D02*
D03*
Y1069960D02*
D03*
X1127500Y929000D02*
D03*
Y915000D02*
D03*
X1107500Y915000D02*
D03*
Y929000D02*
D03*
X1361550Y902890D02*
D03*
Y888890D02*
D03*
X1342500Y902890D02*
D03*
Y888890D02*
D03*
X1360280Y827840D02*
D03*
Y813840D02*
D03*
X1339960Y828670D02*
D03*
Y814670D02*
D03*
X1529070Y906590D02*
D03*
Y920590D02*
D03*
X1510020Y818990D02*
D03*
Y804990D02*
D03*
Y906590D02*
D03*
Y920590D02*
D03*
X1572500Y773000D02*
D03*
Y787000D02*
D03*
D11*
X1172500Y955000D02*
D03*
X1158500D02*
D03*
X1253542Y847500D02*
D03*
X1267543D02*
D03*
X1222000Y982500D02*
D03*
X1208000D02*
D03*
X1162000Y892500D02*
D03*
X1148000D02*
D03*
X1254542Y982500D02*
D03*
X1240543D02*
D03*
D12*
X1058500Y857250D02*
D03*
D13*
X1035600Y924150D02*
D03*
X1058500D02*
D03*
X1081400D02*
D03*
D14*
X384500Y1100000D02*
D03*
X450500D02*
D03*
D15*
X770000Y1022000D02*
D03*
Y923000D02*
D03*
D16*
X686780Y1190810D02*
D03*
D17*
X720780Y1083310D02*
D03*
X703780D02*
D03*
X686780D02*
D03*
X669780D02*
D03*
X652780D02*
D03*
D18*
X670000Y959500D02*
D03*
Y1025500D02*
D03*
X1625630Y746960D02*
D03*
Y680960D02*
D03*
X1626685Y787640D02*
D03*
Y853640D02*
D03*
D19*
X1061040Y945390D02*
D03*
Y977390D02*
D03*
D20*
X1000080Y894590D02*
D03*
Y926590D02*
D03*
D21*
X1207500Y959500D02*
D03*
X1212500D02*
D03*
X1217500D02*
D03*
X1222500D02*
D03*
X1227500D02*
D03*
X1232500D02*
D03*
X1237500D02*
D03*
X1242500D02*
D03*
X1247500D02*
D03*
X1252500D02*
D03*
X1257500D02*
D03*
X1262500D02*
D03*
Y875500D02*
D03*
X1257500D02*
D03*
X1252500D02*
D03*
X1247500D02*
D03*
X1242500D02*
D03*
X1237500D02*
D03*
X1232500D02*
D03*
X1227500D02*
D03*
X1222500D02*
D03*
X1217500D02*
D03*
X1212500D02*
D03*
X1207500D02*
D03*
D22*
X1277000Y945000D02*
D03*
Y940000D02*
D03*
Y935000D02*
D03*
Y930000D02*
D03*
Y925000D02*
D03*
Y920000D02*
D03*
Y915000D02*
D03*
Y910000D02*
D03*
Y905000D02*
D03*
Y900000D02*
D03*
Y895000D02*
D03*
Y890000D02*
D03*
X1193000D02*
D03*
Y895000D02*
D03*
Y900000D02*
D03*
Y905000D02*
D03*
Y910000D02*
D03*
Y915000D02*
D03*
Y920000D02*
D03*
Y925000D02*
D03*
Y930000D02*
D03*
Y935000D02*
D03*
Y940000D02*
D03*
Y945000D02*
D03*
D23*
X1161500Y929500D02*
D03*
Y912500D02*
D03*
X1147500D02*
D03*
Y929500D02*
D03*
D24*
X1390640Y916130D02*
D03*
Y903430D02*
D03*
Y890730D02*
D03*
Y878030D02*
D03*
Y865330D02*
D03*
Y852630D02*
D03*
Y839930D02*
D03*
Y827230D02*
D03*
Y814530D02*
D03*
Y801830D02*
D03*
X1483640D02*
D03*
Y814530D02*
D03*
Y827230D02*
D03*
Y839930D02*
D03*
Y852630D02*
D03*
Y865330D02*
D03*
Y878030D02*
D03*
Y890730D02*
D03*
Y903430D02*
D03*
Y916130D02*
D03*
D25*
X1020000Y715208D02*
D03*
Y737207D02*
D03*
Y759208D02*
D03*
Y791208D02*
D03*
X1080000Y715208D02*
D03*
Y737207D02*
D03*
Y759208D02*
D03*
Y791208D02*
D03*
X1177500Y629500D02*
D03*
Y651500D02*
D03*
Y673500D02*
D03*
Y705500D02*
D03*
X1237500Y629500D02*
D03*
Y651500D02*
D03*
Y673500D02*
D03*
Y705500D02*
D03*
D26*
X1034750Y819000D02*
D03*
X1067500D02*
D03*
X1184750Y734000D02*
D03*
X1217500D02*
D03*
D27*
X1117915Y780500D02*
D03*
X1108415Y804500D02*
D03*
X1127415D02*
D03*
X1195000Y780500D02*
D03*
X1185500Y804500D02*
D03*
X1204500D02*
D03*
D28*
X1342500Y888890D02*
X1361550D01*
X1376640Y890730D02*
X1390640D01*
X1374800Y888890D02*
X1376640Y890730D01*
X1361550Y888890D02*
X1374800D01*
X980000Y927340D02*
X999330D01*
X957500D02*
X980000D01*
X891540D02*
X957500D01*
X1000080Y926590D02*
X1033950D01*
X1117500Y765000D02*
Y780085D01*
X1117915Y780500D01*
X1100000Y975000D02*
X1168985D01*
X1096015D02*
X1100000D01*
X1227500Y772500D02*
Y788516D01*
X1195000Y765000D02*
Y780500D01*
Y765000D02*
X1195000Y765000D01*
X1172500Y955000D02*
X1172500Y955000D01*
Y971485D01*
X1168985Y975000D02*
X1172500Y971485D01*
X1092500Y948905D02*
Y971485D01*
X1096015Y975000D01*
X1061040Y945390D02*
X1088985D01*
X1092500Y948905D01*
X1058500Y924150D02*
Y942850D01*
X1061040Y945390D01*
X892500Y929050D02*
Y1037500D01*
X710000Y1047500D02*
X882500D01*
X892500Y1037500D01*
X703780Y1053720D02*
X710000Y1047500D01*
X703780Y1053720D02*
Y1083310D01*
X775090Y928090D02*
X891540D01*
X770000Y923000D02*
X775090Y928090D01*
X1033950Y926590D02*
X1035600Y924940D01*
Y924150D02*
Y924940D01*
X999330Y927340D02*
X1000080Y926590D01*
D29*
X1370371Y947129D02*
X1375000Y951757D01*
X1310000Y950000D02*
Y960000D01*
X1300000Y944500D02*
X1302750Y947250D01*
X1307250D01*
X1310000Y950000D01*
X1197500Y982500D02*
X1208000D01*
X1190000Y990000D02*
X1197500Y982500D01*
X1530000Y882500D02*
Y905660D01*
X1529070Y906590D02*
X1530000Y905660D01*
X1510020Y818990D02*
X1520678D01*
X1521688Y820000D01*
X1522500D01*
X1483640Y903430D02*
X1498430D01*
X1501590Y906590D02*
X1510020D01*
X1498430Y903430D02*
X1501590Y906590D01*
X1510020D02*
X1529070D01*
X1500000Y816287D02*
Y817233D01*
X1483640Y814530D02*
X1498243D01*
X1500000Y816287D01*
Y817233D02*
X1501757Y818990D01*
X1510020D01*
X1342500Y919257D02*
X1370371Y947129D01*
X1321982Y828670D02*
X1339960D01*
X1320812Y827500D02*
X1321982Y828670D01*
X1320000Y827500D02*
X1320812D01*
X1342500Y902890D02*
Y919257D01*
X1000000Y927340D02*
Y1025743D01*
X1001757Y1027500D02*
X1373243D01*
X1000000Y1025743D02*
X1001757Y1027500D01*
X1375000Y951757D02*
Y1025743D01*
X1373243Y1027500D02*
X1375000Y1025743D01*
X1359865Y828255D02*
X1360280Y827840D01*
X1340375Y828255D02*
X1359865D01*
X1339960Y828670D02*
X1340375Y828255D01*
X1390335Y827535D02*
X1390640Y827230D01*
X1360585Y827535D02*
X1390335D01*
X1360280Y827840D02*
X1360585Y827535D01*
X1361550Y902890D02*
X1361820Y903160D01*
X1390370D01*
X1390640Y903430D01*
X1342500Y902890D02*
X1361550D01*
X1267521Y847479D02*
X1267543Y847500D01*
X1267521Y832521D02*
Y847479D01*
X1267500Y832500D02*
X1267521Y832521D01*
X1177250Y855250D02*
X1177500Y855000D01*
X1165250Y855250D02*
X1177250D01*
X1117707Y780293D02*
X1117915Y780500D01*
X1177250Y705250D02*
X1177500Y705500D01*
X1145250Y705250D02*
X1177250D01*
X1145000Y705000D02*
X1145250Y705250D01*
X1184750Y724750D02*
Y734000D01*
X994519Y791208D02*
X1020000D01*
X993312Y790000D02*
X994519Y791208D01*
X992500Y790000D02*
X993312D01*
X1023671Y793207D02*
Y797450D01*
X1020000Y791208D02*
X1021671D01*
X1023671Y793207D01*
Y797450D02*
X1034750Y808529D01*
Y819000D02*
X1034750Y819000D01*
X1034750Y808529D02*
Y819000D01*
X1177500Y705500D02*
Y717500D01*
X1184750Y724750D01*
X1217500Y734000D02*
X1256000D01*
X1260000Y706757D02*
Y730000D01*
X1256000Y734000D02*
X1260000Y730000D01*
X1237500Y705500D02*
X1238000Y705000D01*
X1258243D02*
X1260000Y706757D01*
X1238000Y705000D02*
X1258243D01*
X1212500Y752500D02*
X1217500Y747500D01*
Y734000D02*
Y747500D01*
X1182500Y752500D02*
X1212500D01*
X1170000Y802743D02*
X1171757Y804500D01*
X1170000Y765000D02*
Y802743D01*
X1171757Y804500D02*
X1185500D01*
X1170000Y765000D02*
X1182500Y752500D01*
X1095000Y800000D02*
X1099500Y804500D01*
X1095000Y792965D02*
Y800000D01*
X1099500Y804500D02*
X1108415D01*
X1080000Y791208D02*
X1093243D01*
X1095000Y792965D01*
X1067500Y809975D02*
Y819000D01*
Y809975D02*
X1080000Y797475D01*
Y791208D02*
Y797475D01*
X1483640Y814530D02*
X1483853Y814743D01*
X1359865Y814255D02*
X1360280Y813840D01*
X1339960Y814670D02*
X1340375Y814255D01*
X1360280Y813840D02*
X1360625Y814185D01*
X1390295D02*
X1390640Y814530D01*
X1165000Y855500D02*
X1165250Y855250D01*
X1122250Y862750D02*
X1122500Y863000D01*
X1110250Y862750D02*
X1122250D01*
X1110000Y862500D02*
X1110250Y862750D01*
X1267245Y847798D02*
X1267543Y847500D01*
X1262500Y859237D02*
Y870000D01*
X1267245Y847798D02*
Y854493D01*
X1262500Y859237D02*
X1267245Y854493D01*
X1262500Y870000D02*
X1262500Y870000D01*
X1262500Y870000D02*
Y875500D01*
X1235000Y847000D02*
Y860000D01*
X1242500Y867500D02*
Y875500D01*
X1235000Y860000D02*
X1242500Y867500D01*
X378730Y1105770D02*
X384500Y1100000D01*
X669780Y1083310D02*
X670000Y1083090D01*
Y1025500D02*
X673500Y1022000D01*
X1290125Y944500D02*
X1300000D01*
X1289625Y945000D02*
X1290125Y944500D01*
X1277000Y945000D02*
X1289625D01*
X1208000Y972625D02*
Y982500D01*
X1207500Y972125D02*
X1208000Y972625D01*
X1207500Y962500D02*
Y972125D01*
X1180000Y947500D02*
Y953243D01*
X1178243Y955000D02*
X1180000Y953243D01*
X1175000Y955000D02*
X1178243D01*
X1182500Y945000D02*
X1193000D01*
X1180000Y947500D02*
X1182500Y945000D01*
D30*
X1507526Y855643D02*
Y864864D01*
X1504383Y852500D02*
X1507526Y855643D01*
X1483770Y852500D02*
X1504383D01*
X1515000Y832500D02*
Y852500D01*
X1528026Y788643D02*
Y822289D01*
X1523086Y827230D02*
X1528026Y822289D01*
X1509730Y827230D02*
X1523086D01*
X1521857Y782474D02*
X1528026Y788643D01*
X1503117Y782474D02*
X1521857D01*
X1502500Y750617D02*
Y781857D01*
X1503117Y782474D01*
X1507526Y864864D02*
Y875707D01*
Y864864D02*
X1566417D01*
X1504383Y878850D02*
X1507526Y875707D01*
X1483640Y852630D02*
X1483770Y852500D01*
X1484460Y878850D02*
X1504383D01*
X1483640Y878030D02*
X1484460Y878850D01*
X1566417Y864864D02*
X1572500Y858781D01*
X1505817Y747300D02*
X1537500D01*
X1502500Y750617D02*
X1505817Y747300D01*
X1483640Y827230D02*
X1509730D01*
X1515000Y832500D01*
X1514270Y890730D02*
X1515000Y890000D01*
X1483640Y890730D02*
X1514270D01*
X1572500Y787000D02*
Y858781D01*
X1625630Y769078D02*
Y787640D01*
X1572500Y787000D02*
X1624990D01*
X1625630Y787640D01*
X1625290Y747300D02*
X1625630Y746960D01*
X1537500Y747300D02*
X1625290D01*
X1666178Y768461D02*
X1671658Y773941D01*
X1714530Y774558D02*
Y797780D01*
X1667141Y766139D02*
X1672621Y771618D01*
X1713913D01*
X1714530Y771002D01*
Y747780D02*
Y771002D01*
X1625630Y746960D02*
Y765522D01*
X1626247Y768461D02*
X1666178D01*
X1625630Y769078D02*
X1626247Y768461D01*
Y766139D02*
X1667141D01*
X1625630Y765522D02*
X1626247Y766139D01*
X1713913Y773941D02*
X1714530Y774558D01*
X1671658Y773941D02*
X1713913D01*
D31*
X1625000Y645000D02*
X1625630Y645630D01*
Y680960D01*
X1626685Y853640D02*
Y881685D01*
X322607Y1100000D02*
X384500D01*
X316837Y1105770D02*
X322607Y1100000D01*
X316230Y1105770D02*
X316837D01*
X670000Y1025500D02*
Y1083090D01*
X673500Y1022000D02*
X770000D01*
X652130Y1083960D02*
X652780Y1083310D01*
X624840Y1083960D02*
X652130D01*
X541020Y1095610D02*
X613190D01*
X624840Y1083960D01*
X539127Y1097503D02*
X541020Y1095610D01*
X452997Y1097503D02*
X539127D01*
X450500Y1100000D02*
X452997Y1097503D01*
D32*
X1529070Y920590D02*
X1544410D01*
X1545000Y920000D01*
X1626685Y881685D02*
X1627500Y882500D01*
X1507560Y918130D02*
X1510020Y920590D01*
X1485640Y918130D02*
X1507560D01*
X1483640Y916130D02*
X1485640Y918130D01*
X1510020Y920590D02*
X1529070D01*
X315000Y642500D02*
X440000D01*
X453000Y629500D02*
X1177500D01*
X440000Y642500D02*
X453000Y629500D01*
X486000Y674000D02*
X1177000D01*
X330000Y740000D02*
X420000D01*
X486000Y674000D01*
X322500Y692500D02*
X425000D01*
X465000Y652500D02*
X1176500D01*
X425000Y692500D02*
X465000Y652500D01*
X1176500D02*
X1177500Y651500D01*
X1177000Y674000D02*
X1177500Y673500D01*
X322500Y837500D02*
X637500D01*
X759792Y715208D01*
X1020000D01*
X322500Y887500D02*
X625000D01*
X775293Y737207D02*
X1020000D01*
X625000Y887500D02*
X775293Y737207D01*
X627500Y937500D02*
X805793Y759208D01*
X322500Y937500D02*
X627500D01*
X805793Y759208D02*
X1020000D01*
D33*
X1537800Y773000D02*
X1572500D01*
X1537500Y772700D02*
X1537800Y773000D01*
X1375000Y853801D02*
Y865330D01*
X1390640D01*
X1322170D02*
X1375000D01*
Y853801D02*
X1376172Y852630D01*
X1390640D01*
X1305000Y882500D02*
Y908828D01*
X1277000Y910000D02*
X1303828D01*
X1305000Y908828D01*
X1332500Y923172D02*
Y990000D01*
X1331328Y922000D02*
X1332500Y923172D01*
X1287186Y914000D02*
X1313500D01*
X1287500Y925000D02*
X1290500Y922000D01*
X1288843Y918000D02*
X1320828D01*
X1313500Y914000D02*
X1320000Y907500D01*
X1287000Y919843D02*
X1288843Y918000D01*
X1277000Y915000D02*
X1286186D01*
X1320828Y918000D02*
X1330000Y908828D01*
X1290500Y922000D02*
X1331328D01*
X1286186Y915000D02*
X1287186Y914000D01*
X1330000Y882500D02*
Y908828D01*
X1305000Y882500D02*
X1322170Y865330D01*
X1322500Y847500D02*
X1330070Y839930D01*
X1390640D01*
X1277000Y920000D02*
X1277157Y919843D01*
X1287000D01*
X1287500Y925000D02*
Y934636D01*
X1334470Y878030D02*
X1390640D01*
X1330000Y882500D02*
X1334470Y878030D01*
X1207500Y852500D02*
Y875500D01*
X1204500Y804500D02*
Y849500D01*
X1207500Y852500D01*
X1181500Y873500D02*
Y888828D01*
X1193000Y890000D02*
X1193000Y890000D01*
X1182672Y890000D02*
X1193000D01*
X1181500Y888828D02*
X1182672Y890000D01*
X1190000Y842500D02*
Y868828D01*
X1188828Y870000D02*
X1190000Y868828D01*
X1185000Y870000D02*
X1188828D01*
X1181500Y873500D02*
X1185000Y870000D01*
X1175000Y827500D02*
X1190000Y842500D01*
X1160000Y827500D02*
X1175000D01*
X1151457Y818957D02*
X1160000Y827500D01*
X1151457Y802516D02*
Y818957D01*
X1127915Y805000D02*
X1140032D01*
X1142516Y802516D01*
X1151457D02*
X1151457Y802516D01*
X1142516Y802516D02*
X1151457D01*
X1127415Y804500D02*
X1127915Y805000D01*
X1204500Y804500D02*
X1206484Y802516D01*
X1227500D01*
X1390570Y840000D02*
X1390640Y839930D01*
X1277000Y935000D02*
X1287136D01*
X1287500Y934636D01*
X1262500Y968828D02*
X1263671Y970000D01*
X1300000D02*
X1307000Y977000D01*
X1262500Y959500D02*
Y968828D01*
X1263671Y970000D02*
X1300000D01*
X1307000Y989900D02*
X1307100Y990000D01*
X1307000Y977000D02*
Y989900D01*
X1122500Y877000D02*
Y898828D01*
X1121328Y900000D02*
X1122500Y898828D01*
X1112500Y900000D02*
X1121328D01*
X1228672Y970000D02*
X1238828D01*
X1227500Y959500D02*
Y968828D01*
X1228672Y970000D01*
X1240000Y971172D02*
Y981957D01*
X1238828Y970000D02*
X1240000Y971172D01*
Y981957D02*
X1240543Y982500D01*
X1147500Y941328D02*
X1148672Y942500D01*
X1169414D01*
X1176328D02*
X1177500Y941328D01*
X1147500Y929500D02*
Y941328D01*
X1169414Y942500D02*
X1176328D01*
X1177500Y926172D02*
Y941328D01*
X1107500Y905000D02*
Y915000D01*
Y905000D02*
X1112500Y900000D01*
X1122500Y877000D02*
X1164500D01*
X1172500Y912500D02*
X1180000Y920000D01*
X1193000D01*
X1178672Y925000D02*
X1193000D01*
X1177500Y926172D02*
X1178672Y925000D01*
X1147500Y929500D02*
X1147500Y929500D01*
X1161500Y912500D02*
X1172500D01*
X1180657Y915000D02*
X1193000D01*
X1171250Y883750D02*
Y905593D01*
X1180657Y915000D01*
X1164500Y877000D02*
X1171250Y883750D01*
X1172000Y869500D02*
X1177500Y875000D01*
X1180000Y905000D02*
X1187500D01*
X1177500Y902500D02*
X1180000Y905000D01*
X1177500Y875000D02*
Y902500D01*
X1142500Y869500D02*
X1165000D01*
X1188000Y904500D02*
X1190000D01*
X1187500Y905000D02*
X1188000Y904500D01*
X1165000Y869500D02*
X1172000D01*
X1162000Y892500D02*
Y912000D01*
X1161500Y912500D02*
X1162000Y912000D01*
X1128000Y929500D02*
X1147500D01*
X1127500Y929000D02*
X1128000Y929500D01*
D34*
X316230Y1055770D02*
D03*
X1307100Y990000D02*
D03*
X1332500D02*
D03*
X1281700D02*
D03*
X541020Y1045610D02*
D03*
X1537500Y747300D02*
D03*
X1714530Y797780D02*
D03*
Y847780D02*
D03*
X315000Y890000D02*
D03*
Y840000D02*
D03*
Y692500D02*
D03*
Y642500D02*
D03*
D35*
X316230Y1105770D02*
D03*
X541020Y1095610D02*
D03*
X1714530Y747780D02*
D03*
X315000Y940000D02*
D03*
Y742500D02*
D03*
D36*
X1357900Y990000D02*
D03*
D37*
X891540Y893090D02*
D03*
D38*
Y928090D02*
D03*
D39*
X1537500Y772700D02*
D03*
D40*
X1310000Y960000D02*
D03*
X1190000Y990000D02*
D03*
X1100000Y975000D02*
D03*
X1530000Y882500D02*
D03*
X1522500Y820000D02*
D03*
X1515000Y852500D02*
D03*
Y890000D02*
D03*
X1370000Y947500D02*
D03*
X1320000Y827500D02*
D03*
Y907500D02*
D03*
X1322500Y847500D02*
D03*
X1117500Y765000D02*
D03*
X1267500Y832500D02*
D03*
X1177500Y855000D02*
D03*
X957500Y927500D02*
D03*
X1145000Y705000D02*
D03*
X980000Y927500D02*
D03*
X992500Y790000D02*
D03*
X1227500Y772500D02*
D03*
X1195000Y765000D02*
D03*
X1110000Y862500D02*
D03*
X707500Y1170000D02*
D03*
X665000D02*
D03*
X707500Y1200000D02*
D03*
X665000D02*
D03*
D41*
X1625000Y645000D02*
D03*
X1545000Y920000D02*
D03*
X1627500Y882500D02*
D03*
%TF.MD5,9657b2bdd43afb0839d1126b6a0923e8*%
M02*
