M48
;Layer_Color=9474304
;FILE_FORMAT=4:4
METRIC,LZ
;TYPE=PLATED
T1F00S00C0.3000
T2F00S00C0.5000
T3F00S00C0.8000
T4F00S00C0.9000
T5F00S00C1.1000
T6F00S00C1.2000
%
T01
X01195Y00765
X012275Y007725
X011175Y00765
X01145Y00705
X009925Y0079
X007075Y0117
X00665
X009575Y009275
X0098
X011Y00975
X0119Y0099
X011775Y00855
X0111Y008625
X012675Y008325
X0132Y008275
X013225Y008475
X0132Y009075
X0131Y0096
X0137Y009475
X01515Y0089
X0153Y008825
X01515Y008525
X015225Y0082
X007075Y012
X00665
T02
X01625Y00645
X01545Y0092
X016275Y008825
T03
X0089154Y0089309
Y0092809
T04
X0054102Y0104561
Y0109561
T05
X015375Y007473
Y007727
X013579Y0099
X013325
X013071
X012817
T06
X0171453Y0074778
X00315Y007425
Y006925
Y006425
Y0084
Y0089
Y0094
X0031623Y0105577
Y0110577
X0171453Y0084778
Y0079778
M30
