%TF.GenerationSoftware,Altium Limited,Altium Designer,20.0.13 (296)*%
G04 Layer_Color=8388736*
%FSLAX44Y44*%
%MOMM*%
%TF.FileFunction,Soldermask,Top*%
%TF.Part,Single*%
G01*
G75*
%TA.AperFunction,ComponentPad*%
%ADD56C,2.2032*%
G04:AMPARAMS|DCode=57|XSize=2.2032mm|YSize=2.2032mm|CornerRadius=0mm|HoleSize=0mm|Usage=FLASHONLY|Rotation=270.000|XOffset=0mm|YOffset=0mm|HoleType=Round|Shape=Octagon|*
%AMOCTAGOND57*
4,1,8,-0.5508,-1.1016,0.5508,-1.1016,1.1016,-0.5508,1.1016,0.5508,0.5508,1.1016,-0.5508,1.1016,-1.1016,0.5508,-1.1016,-0.5508,-0.5508,-1.1016,0.0*
%
%ADD57OCTAGOND57*%

%ADD58R,2.2032X2.2032*%
%ADD59C,1.8032*%
G04:AMPARAMS|DCode=60|XSize=1.8032mm|YSize=1.8032mm|CornerRadius=0mm|HoleSize=0mm|Usage=FLASHONLY|Rotation=270.000|XOffset=0mm|YOffset=0mm|HoleType=Round|Shape=Octagon|*
%AMOCTAGOND60*
4,1,8,-0.4508,-0.9016,0.4508,-0.9016,0.9016,-0.4508,0.9016,0.4508,0.4508,0.9016,-0.4508,0.9016,-0.9016,0.4508,-0.9016,-0.4508,-0.4508,-0.9016,0.0*
%
%ADD60OCTAGOND60*%

%ADD61R,2.2032X2.2032*%
%TA.AperFunction,ViaPad*%
%ADD62C,0.8032*%
%ADD63C,1.1032*%
%TA.AperFunction,SMDPad,CuDef*%
%ADD70R,1.0532X1.0532*%
%ADD71R,1.0532X1.0532*%
G04:AMPARAMS|DCode=72|XSize=1.5132mm|YSize=3.4432mm|CornerRadius=0.1999mm|HoleSize=0mm|Usage=FLASHONLY|Rotation=270.000|XOffset=0mm|YOffset=0mm|HoleType=Round|Shape=RoundedRectangle|*
%AMROUNDEDRECTD72*
21,1,1.5132,3.0435,0,0,270.0*
21,1,1.1135,3.4432,0,0,270.0*
1,1,0.3997,-1.5218,-0.5568*
1,1,0.3997,-1.5218,0.5568*
1,1,0.3997,1.5218,0.5568*
1,1,0.3997,1.5218,-0.5568*
%
%ADD72ROUNDEDRECTD72*%
G04:AMPARAMS|DCode=73|XSize=1.5132mm|YSize=1.1332mm|CornerRadius=0.1714mm|HoleSize=0mm|Usage=FLASHONLY|Rotation=270.000|XOffset=0mm|YOffset=0mm|HoleType=Round|Shape=RoundedRectangle|*
%AMROUNDEDRECTD73*
21,1,1.5132,0.7905,0,0,270.0*
21,1,1.1705,1.1332,0,0,270.0*
1,1,0.3427,-0.3953,-0.5853*
1,1,0.3427,-0.3953,0.5853*
1,1,0.3427,0.3953,0.5853*
1,1,0.3427,0.3953,-0.5853*
%
%ADD73ROUNDEDRECTD73*%
%ADD74R,2.6032X3.5032*%
%ADD75R,5.6040X3.1040*%
%ADD76R,11.0432X8.0832*%
%ADD77R,1.1932X3.9932*%
%ADD78R,3.5032X2.6032*%
%ADD79R,2.6032X1.6032*%
%ADD80R,1.8032X1.4032*%
%ADD81O,0.5032X1.6032*%
%ADD82O,1.6032X0.5032*%
%ADD83R,1.3032X1.4032*%
%ADD84R,2.2032X0.8032*%
%ADD85R,2.2040X0.9040*%
%ADD86R,1.1132X1.4232*%
%ADD87R,0.8032X1.2032*%
D56*
X316230Y1055770D02*
D03*
X1307100Y990000D02*
D03*
X1332500D02*
D03*
X1281700D02*
D03*
X541020Y1045610D02*
D03*
X1537500Y747300D02*
D03*
X1714530Y797780D02*
D03*
Y847780D02*
D03*
X315000Y890000D02*
D03*
Y840000D02*
D03*
Y692500D02*
D03*
Y642500D02*
D03*
D57*
X316230Y1105770D02*
D03*
X541020Y1095610D02*
D03*
X1714530Y747780D02*
D03*
X315000Y940000D02*
D03*
Y742500D02*
D03*
D58*
X1357900Y990000D02*
D03*
D59*
X891540Y893090D02*
D03*
D60*
Y928090D02*
D03*
D61*
X1537500Y772700D02*
D03*
D62*
X1310000Y960000D02*
D03*
X1190000Y990000D02*
D03*
X1100000Y975000D02*
D03*
X1530000Y882500D02*
D03*
X1522500Y820000D02*
D03*
X1515000Y852500D02*
D03*
Y890000D02*
D03*
X1370000Y947500D02*
D03*
X1320000Y827500D02*
D03*
Y907500D02*
D03*
X1322500Y847500D02*
D03*
X1117500Y765000D02*
D03*
X1267500Y832500D02*
D03*
X1177500Y855000D02*
D03*
X957500Y927500D02*
D03*
X1145000Y705000D02*
D03*
X980000Y927500D02*
D03*
X992500Y790000D02*
D03*
X1227500Y772500D02*
D03*
X1195000Y765000D02*
D03*
X1110000Y862500D02*
D03*
X707500Y1170000D02*
D03*
X665000D02*
D03*
X707500Y1200000D02*
D03*
X665000D02*
D03*
D63*
X1625000Y645000D02*
D03*
X1545000Y920000D02*
D03*
X1627500Y882500D02*
D03*
D70*
X1227500Y802516D02*
D03*
Y788516D02*
D03*
X1151457D02*
D03*
Y802516D02*
D03*
X1235000Y847000D02*
D03*
Y833000D02*
D03*
X1300000Y930500D02*
D03*
Y944500D02*
D03*
X1165000Y855500D02*
D03*
Y869500D02*
D03*
X1122500Y877000D02*
D03*
Y863000D02*
D03*
X1142500Y855500D02*
D03*
Y869500D02*
D03*
X624840Y1083960D02*
D03*
Y1069960D02*
D03*
X1127500Y929000D02*
D03*
Y915000D02*
D03*
X1107500Y915000D02*
D03*
Y929000D02*
D03*
X1361550Y902890D02*
D03*
Y888890D02*
D03*
X1342500Y902890D02*
D03*
Y888890D02*
D03*
X1360280Y827840D02*
D03*
Y813840D02*
D03*
X1339960Y828670D02*
D03*
Y814670D02*
D03*
X1529070Y906590D02*
D03*
Y920590D02*
D03*
X1510020Y818990D02*
D03*
Y804990D02*
D03*
Y906590D02*
D03*
Y920590D02*
D03*
X1572500Y773000D02*
D03*
Y787000D02*
D03*
D71*
X1172500Y955000D02*
D03*
X1158500D02*
D03*
X1253542Y847500D02*
D03*
X1267543D02*
D03*
X1222000Y982500D02*
D03*
X1208000D02*
D03*
X1162000Y892500D02*
D03*
X1148000D02*
D03*
X1254542Y982500D02*
D03*
X1240543D02*
D03*
D72*
X1058500Y857250D02*
D03*
D73*
X1035600Y924150D02*
D03*
X1058500D02*
D03*
X1081400D02*
D03*
D74*
X384500Y1100000D02*
D03*
X450500D02*
D03*
D75*
X770000Y1022000D02*
D03*
Y923000D02*
D03*
D76*
X686780Y1190810D02*
D03*
D77*
X720780Y1083310D02*
D03*
X703780D02*
D03*
X686780D02*
D03*
X669780D02*
D03*
X652780D02*
D03*
D78*
X670000Y959500D02*
D03*
Y1025500D02*
D03*
X1625630Y746960D02*
D03*
Y680960D02*
D03*
X1626685Y787640D02*
D03*
Y853640D02*
D03*
D79*
X1061040Y945390D02*
D03*
Y977390D02*
D03*
D80*
X1000080Y894590D02*
D03*
Y926590D02*
D03*
D81*
X1207500Y959500D02*
D03*
X1212500D02*
D03*
X1217500D02*
D03*
X1222500D02*
D03*
X1227500D02*
D03*
X1232500D02*
D03*
X1237500D02*
D03*
X1242500D02*
D03*
X1247500D02*
D03*
X1252500D02*
D03*
X1257500D02*
D03*
X1262500D02*
D03*
Y875500D02*
D03*
X1257500D02*
D03*
X1252500D02*
D03*
X1247500D02*
D03*
X1242500D02*
D03*
X1237500D02*
D03*
X1232500D02*
D03*
X1227500D02*
D03*
X1222500D02*
D03*
X1217500D02*
D03*
X1212500D02*
D03*
X1207500D02*
D03*
D82*
X1277000Y945000D02*
D03*
Y940000D02*
D03*
Y935000D02*
D03*
Y930000D02*
D03*
Y925000D02*
D03*
Y920000D02*
D03*
Y915000D02*
D03*
Y910000D02*
D03*
Y905000D02*
D03*
Y900000D02*
D03*
Y895000D02*
D03*
Y890000D02*
D03*
X1193000D02*
D03*
Y895000D02*
D03*
Y900000D02*
D03*
Y905000D02*
D03*
Y910000D02*
D03*
Y915000D02*
D03*
Y920000D02*
D03*
Y925000D02*
D03*
Y930000D02*
D03*
Y935000D02*
D03*
Y940000D02*
D03*
Y945000D02*
D03*
D83*
X1161500Y929500D02*
D03*
Y912500D02*
D03*
X1147500D02*
D03*
Y929500D02*
D03*
D84*
X1390640Y916130D02*
D03*
Y903430D02*
D03*
Y890730D02*
D03*
Y878030D02*
D03*
Y865330D02*
D03*
Y852630D02*
D03*
Y839930D02*
D03*
Y827230D02*
D03*
Y814530D02*
D03*
Y801830D02*
D03*
X1483640D02*
D03*
Y814530D02*
D03*
Y827230D02*
D03*
Y839930D02*
D03*
Y852630D02*
D03*
Y865330D02*
D03*
Y878030D02*
D03*
Y890730D02*
D03*
Y903430D02*
D03*
Y916130D02*
D03*
D85*
X1020000Y715208D02*
D03*
Y737207D02*
D03*
Y759208D02*
D03*
Y791208D02*
D03*
X1080000Y715208D02*
D03*
Y737207D02*
D03*
Y759208D02*
D03*
Y791208D02*
D03*
X1177500Y629500D02*
D03*
Y651500D02*
D03*
Y673500D02*
D03*
Y705500D02*
D03*
X1237500Y629500D02*
D03*
Y651500D02*
D03*
Y673500D02*
D03*
Y705500D02*
D03*
D86*
X1034750Y819000D02*
D03*
X1067500D02*
D03*
X1184750Y734000D02*
D03*
X1217500D02*
D03*
D87*
X1117915Y780500D02*
D03*
X1108415Y804500D02*
D03*
X1127415D02*
D03*
X1195000Y780500D02*
D03*
X1185500Y804500D02*
D03*
X1204500D02*
D03*
%TF.MD5,060d17eec684bc6cb1af52e257faae98*%
M02*
