%TF.GenerationSoftware,Altium Limited,Altium Designer,20.0.13 (296)*%
G04 Layer_Color=16711935*
%FSLAX44Y44*%
%MOMM*%
%TF.FileFunction,Soldermask,Bot*%
%TF.Part,Single*%
G01*
G75*
%TA.AperFunction,ComponentPad*%
%ADD56C,2.2032*%
G04:AMPARAMS|DCode=57|XSize=2.2032mm|YSize=2.2032mm|CornerRadius=0mm|HoleSize=0mm|Usage=FLASHONLY|Rotation=270.000|XOffset=0mm|YOffset=0mm|HoleType=Round|Shape=Octagon|*
%AMOCTAGOND57*
4,1,8,-0.5508,-1.1016,0.5508,-1.1016,1.1016,-0.5508,1.1016,0.5508,0.5508,1.1016,-0.5508,1.1016,-1.1016,0.5508,-1.1016,-0.5508,-0.5508,-1.1016,0.0*
%
%ADD57OCTAGOND57*%

%ADD58R,2.2032X2.2032*%
%ADD59C,1.8032*%
G04:AMPARAMS|DCode=60|XSize=1.8032mm|YSize=1.8032mm|CornerRadius=0mm|HoleSize=0mm|Usage=FLASHONLY|Rotation=270.000|XOffset=0mm|YOffset=0mm|HoleType=Round|Shape=Octagon|*
%AMOCTAGOND60*
4,1,8,-0.4508,-0.9016,0.4508,-0.9016,0.9016,-0.4508,0.9016,0.4508,0.4508,0.9016,-0.4508,0.9016,-0.9016,0.4508,-0.9016,-0.4508,-0.4508,-0.9016,0.0*
%
%ADD60OCTAGOND60*%

%ADD61R,2.2032X2.2032*%
%TA.AperFunction,ViaPad*%
%ADD62C,0.8032*%
%ADD63C,1.1032*%
D56*
X316230Y1055770D02*
D03*
X1307100Y990000D02*
D03*
X1332500D02*
D03*
X1281700D02*
D03*
X541020Y1045610D02*
D03*
X1537500Y747300D02*
D03*
X1714530Y797780D02*
D03*
Y847780D02*
D03*
X315000Y890000D02*
D03*
Y840000D02*
D03*
Y692500D02*
D03*
Y642500D02*
D03*
D57*
X316230Y1105770D02*
D03*
X541020Y1095610D02*
D03*
X1714530Y747780D02*
D03*
X315000Y940000D02*
D03*
Y742500D02*
D03*
D58*
X1357900Y990000D02*
D03*
D59*
X891540Y893090D02*
D03*
D60*
Y928090D02*
D03*
D61*
X1537500Y772700D02*
D03*
D62*
X1310000Y960000D02*
D03*
X1190000Y990000D02*
D03*
X1100000Y975000D02*
D03*
X1530000Y882500D02*
D03*
X1522500Y820000D02*
D03*
X1515000Y852500D02*
D03*
Y890000D02*
D03*
X1370000Y947500D02*
D03*
X1320000Y827500D02*
D03*
Y907500D02*
D03*
X1322500Y847500D02*
D03*
X1117500Y765000D02*
D03*
X1267500Y832500D02*
D03*
X1177500Y855000D02*
D03*
X957500Y927500D02*
D03*
X1145000Y705000D02*
D03*
X980000Y927500D02*
D03*
X992500Y790000D02*
D03*
X1227500Y772500D02*
D03*
X1195000Y765000D02*
D03*
X1110000Y862500D02*
D03*
X707500Y1170000D02*
D03*
X665000D02*
D03*
X707500Y1200000D02*
D03*
X665000D02*
D03*
D63*
X1625000Y645000D02*
D03*
X1545000Y920000D02*
D03*
X1627500Y882500D02*
D03*
%TF.MD5,442e91a69129177bbf2a4f8929349eaf*%
M02*
